<svg width="26" height="26" viewBox="0 0 26 26" fill="none" xmlns="http://www.w3.org/2000/svg">
<path d="M12.7343 5.96857L12.8514 5.80957C8.95399 5.88889 5.80798 9.08394 5.80798 13C5.80798 16.9657 9.03432 20.192 13 20.192C16.9657 20.192 20.192 16.9657 20.192 13C20.192 11.5972 19.7759 10.221 19.0089 9.05408L17.9602 9.87024L15.6907 14.8754L12.7343 5.96857Z" fill="#BDBBE4"/>
<path d="M21.7302 3.36802L20.8081 4.7157L21.555 7.07251L20.2141 8.11606C21.1866 9.5518 21.7155 11.2588 21.7155 13C21.7155 17.8057 17.8057 21.7154 13.0001 21.7154C8.19437 21.7154 4.28457 17.8057 4.28457 13C4.28457 8.19427 8.19427 4.28457 13 4.28457C13.3117 4.28457 13.6254 4.30193 13.9371 4.33555L15.5387 2.1612L15.7786 0.298492C14.8686 0.100293 13.9367 0 13 0C9.52758 0 6.263 1.35225 3.80758 3.80758C1.35225 6.263 0 9.52758 0 13C0 16.4724 1.35225 19.737 3.80758 22.1924C6.263 24.6477 9.52758 26 13 26C16.4724 26 19.737 24.6477 22.1924 22.1924C24.6477 19.737 26 16.4724 26 13C26 9.29937 24.4538 5.83334 21.7302 3.36802Z" fill="#BDBBE4"/>
</svg>
