<svg width="108" height="108" viewBox="0 0 108 108" fill="none" xmlns="http://www.w3.org/2000/svg">
    <path d="M1.22754 54.0002C1.22754 24.8545 24.8548 1.22729 54.0005 1.22729C83.1461 1.22729 106.773 24.8545 106.773 54.0002C106.773 83.1459 83.1461 106.773 54.0005 106.773C24.8548 106.773 1.22754 83.1459 1.22754 54.0002Z" fill="#444287"/>
    <path d="M1.22754 54.0002C1.22754 24.8545 24.8548 1.22729 54.0005 1.22729C83.1461 1.22729 106.773 24.8545 106.773 54.0002C106.773 83.1459 83.1461 106.773 54.0005 106.773C24.8548 106.773 1.22754 83.1459 1.22754 54.0002Z" fill="url(#paint0_linear_712_118364)"/>
    <path d="M1.22754 54.0002C1.22754 24.8545 24.8548 1.22729 54.0005 1.22729C83.1461 1.22729 106.773 24.8545 106.773 54.0002C106.773 83.1459 83.1461 106.773 54.0005 106.773C24.8548 106.773 1.22754 83.1459 1.22754 54.0002Z" fill="url(#paint1_linear_712_118364)"/>
    <path d="M7.56026 54.0001C7.56026 28.3519 28.3522 7.55994 54.0004 7.55994C79.6486 7.55994 100.441 28.3519 100.441 54.0001C100.441 79.6483 79.6486 100.44 54.0004 100.44C28.3522 100.44 7.56026 79.6483 7.56026 54.0001Z" fill="#444287"/>
    <path d="M7.56026 54.0001C7.56026 28.3519 28.3522 7.55994 54.0004 7.55994C79.6486 7.55994 100.441 28.3519 100.441 54.0001C100.441 79.6483 79.6486 100.44 54.0004 100.44C28.3522 100.44 7.56026 79.6483 7.56026 54.0001Z" fill="url(#paint2_linear_712_118364)"/>
    <path fill-rule="evenodd" clip-rule="evenodd" d="M55.5337 15.0296L55.4951 16.0288L55.4565 17.0281C54.9735 17.0094 54.4881 17 54.0004 17C53.5126 17 53.0272 17.0094 52.5442 17.0281L52.5056 16.0288L52.467 15.0296C52.9121 15.0124 53.3591 15.0026 53.8079 15.0005C53.872 15.0002 53.9362 15 54.0004 15C54.0847 15 54.1689 15.0003 54.2531 15.0008C54.6817 15.0035 55.1086 15.0132 55.5337 15.0296ZM58.5871 15.2669L58.4708 16.2601L58.3544 17.2533C59.3229 17.3668 60.2798 17.5176 61.2235 17.7043L61.4176 16.7233L61.6117 15.7423C60.6166 15.5455 59.6079 15.3865 58.5871 15.2669ZM64.5909 16.4551L64.3199 17.4177L64.0489 18.3803C64.9849 18.6438 65.9059 18.9432 66.8102 19.2769L67.1564 18.3388L67.5027 17.4006C66.549 17.0487 65.5779 16.733 64.5909 16.4551ZM70.3323 18.574L69.9131 19.4819L69.4938 20.3897C70.3754 20.7968 71.2383 21.2377 72.081 21.7106L72.5704 20.8385L73.0598 19.9665C72.1715 19.468 71.2618 19.0032 70.3323 18.574ZM75.6694 21.5689L75.1131 22.3999L74.5567 23.2309C75.3629 23.7706 76.1467 24.3412 76.9066 24.941L77.5262 24.1561L78.1458 23.3712C77.3451 22.7391 76.519 22.1378 75.6694 21.5689ZM80.4736 25.3612L79.7946 26.0953L79.1156 26.8295C79.8272 27.4875 80.5128 28.1732 81.1709 28.8847L81.905 28.2057L82.6392 27.5268C81.9458 26.777 81.2233 26.0546 80.4736 25.3612ZM84.6292 29.8546L83.8443 30.4742L83.0594 31.0938C83.6592 31.8536 84.2298 32.6375 84.7695 33.4436L85.6004 32.8873L86.4314 32.331C85.8626 31.4813 85.2612 30.6553 84.6292 29.8546ZM88.0339 34.9406L87.1618 35.43L86.2898 35.9194C86.7627 36.762 87.2035 37.625 87.6106 38.5065L88.5185 38.0873L89.4264 37.6681C88.9971 36.7386 88.5324 35.8288 88.0339 34.9406ZM90.5997 40.4977L89.6616 40.8439L88.7234 41.1901C89.0572 42.0945 89.3566 43.0154 89.6201 43.9514L90.5827 43.6805L91.5453 43.4095C91.2674 42.4225 90.9517 41.4513 90.5997 40.4977ZM92.258 46.3887L91.2771 46.5828L90.2961 46.7768C90.4828 47.7206 90.6336 48.6775 90.7471 49.6459L91.7403 49.5296L92.7335 49.4132C92.6139 48.3925 92.4549 47.3838 92.258 46.3887ZM92.9708 52.4666L91.9715 52.5052L90.9723 52.5439C90.9909 53.0268 91.0004 53.5123 91.0004 54C91.0004 54.4877 90.9909 54.9732 90.9723 55.4561L91.9715 55.4947L92.9708 55.5334C92.9904 55.0247 93.0004 54.5135 93.0004 54C93.0004 53.4865 92.9904 52.9753 92.9708 52.4666ZM92.7335 58.5868L91.7403 58.4704L90.7471 58.354C90.6336 59.3225 90.4828 60.2794 90.2961 61.2232L91.2771 61.4172L92.258 61.6113C92.4549 60.6162 92.6139 59.6075 92.7335 58.5868ZM91.5453 64.5905L90.5827 64.3195L89.6201 64.0486C89.3566 64.9846 89.0572 65.9055 88.7234 66.8099L89.6616 67.1561L90.5997 67.5023C90.9517 66.5487 91.2674 65.5775 91.5453 64.5905ZM89.4264 70.3319L88.5185 69.9127L87.6106 69.4934C87.2035 70.375 86.7627 71.238 86.2898 72.0806L87.1619 72.57L88.0339 73.0594C88.5324 72.1712 88.9971 71.2614 89.4264 70.3319ZM86.4314 75.669L85.6004 75.1127L84.7695 74.5564C84.2298 75.3625 83.6592 76.1464 83.0594 76.9062L83.8443 77.5258L84.6292 78.1454C85.2612 77.3447 85.8626 76.5187 86.4314 75.669ZM82.6392 80.4732L81.905 79.7943L81.1709 79.1153C80.5128 79.8268 79.8272 80.5125 79.1156 81.1705L79.7946 81.9047L80.4736 82.6388C81.2234 81.9454 81.9458 81.223 82.6392 80.4732ZM78.1458 84.6288L77.5262 83.8439L76.9066 83.059C76.1468 83.6588 75.3629 84.2294 74.5567 84.7691L75.1131 85.6001L75.6694 86.431C76.519 85.8622 77.3451 85.2609 78.1458 84.6288ZM73.0598 88.0335L72.5704 87.1615L72.081 86.2894C71.2383 86.7623 70.3754 87.2031 69.4938 87.6103L69.9131 88.5181L70.3323 89.426C71.2618 88.9968 72.1716 88.532 73.0598 88.0335ZM67.5027 90.5994L67.1564 89.6612L66.8102 88.7231C65.9059 89.0568 64.9849 89.3562 64.0489 89.6197L64.3199 90.5823L64.5909 91.5449C65.5779 91.267 66.549 90.9513 67.5027 90.5994ZM61.6117 92.2577L61.4176 91.2767L61.2235 90.2957C60.2798 90.4824 59.3229 90.6332 58.3544 90.7467L58.4708 91.7399L58.5871 92.7331C59.6079 92.6135 60.6166 92.4545 61.6117 92.2577ZM55.5338 92.9704L55.4951 91.9712L55.4565 90.9719C54.9735 90.9906 54.4881 91 54.0004 91C53.5126 91 53.0272 90.9906 52.5443 90.9719L52.5056 91.9712L52.467 92.9704C52.9757 92.9901 53.4869 93 54.0004 93C54.5139 93 55.0251 92.9901 55.5338 92.9704ZM49.4136 92.7331L49.53 91.7399L49.6463 90.7467C48.6778 90.6332 47.721 90.4824 46.7772 90.2957L46.5831 91.2767L46.3891 92.2577C47.3841 92.4545 48.3928 92.6135 49.4136 92.7331ZM43.4099 91.5449L43.6808 90.5823L43.9518 89.6197C43.0158 89.3562 42.0949 89.0568 41.1905 88.7231L40.8443 89.6612L40.4981 90.5994C41.4517 90.9513 42.4228 91.267 43.4099 91.5449ZM37.6684 89.426L38.0877 88.5181L38.5069 87.6103C37.6253 87.2032 36.7624 86.7623 35.9198 86.2894L35.4304 87.1615L34.9409 88.0335C35.8292 88.532 36.7389 88.9968 37.6684 89.426ZM32.3314 86.4311L32.8877 85.6001L33.444 84.7691C32.6378 84.2294 31.854 83.6588 31.0942 83.059L30.4746 83.8439L29.8549 84.6288C30.6556 85.2609 31.4817 85.8622 32.3314 86.4311ZM27.5271 82.6388L28.2061 81.9047L28.8851 81.1705C28.1736 80.5125 27.4879 79.8268 26.8299 79.1153L26.0957 79.7943L25.3615 80.4732C26.0549 81.223 26.7774 81.9454 27.5271 82.6388ZM23.3716 78.1454L24.1565 77.5258L24.9414 76.9062C24.3416 76.1464 23.771 75.3625 23.2313 74.5564L22.4003 75.1127L21.5693 75.669C22.1382 76.5187 22.7395 77.3447 23.3716 78.1454ZM19.9668 73.0594L20.8389 72.57L21.7109 72.0806C21.238 71.238 20.7972 70.375 20.3901 69.4934L19.4822 69.9127L18.5744 70.3319C19.0036 71.2614 19.4683 72.1712 19.9668 73.0594ZM17.401 67.5023L18.3391 67.1561L19.2773 66.8099C18.9435 65.9055 18.6441 64.9846 18.3807 64.0486L17.4181 64.3195L16.4555 64.5905C16.7333 65.5775 17.0491 66.5487 17.401 67.5023ZM15.7427 61.6113L16.7237 61.4173L17.7047 61.2232C17.518 60.2794 17.3671 59.3225 17.2537 58.3541L16.2605 58.4704L15.2672 58.5868C15.3868 59.6075 15.5458 60.6162 15.7427 61.6113ZM15.03 55.5334L16.0292 55.4948L17.0285 55.4561C17.0098 54.9732 17.0004 54.4877 17.0004 54C17.0004 53.5123 17.0098 53.0268 17.0285 52.5439L16.0292 52.5053L15.03 52.4666C15.0103 52.9753 15.0004 53.4865 15.0004 54C15.0004 54.5135 15.0103 55.0247 15.03 55.5334ZM15.2672 49.4132L16.2605 49.5296L17.2537 49.646C17.3671 48.6775 17.518 47.7206 17.7047 46.7768L16.7237 46.5828L15.7427 46.3887C15.5458 47.3838 15.3868 48.3925 15.2672 49.4132ZM16.4555 43.4095L17.4181 43.6805L18.3806 43.9514C18.6441 43.0154 18.9435 42.0945 19.2773 41.1901L18.3391 40.8439L17.401 40.4977C17.0491 41.4513 16.7333 42.4225 16.4555 43.4095ZM18.5744 37.6681L19.4822 38.0873L20.3901 38.5066C20.7972 37.625 21.238 36.762 21.7109 35.9194L20.8389 35.43L19.9668 34.9406C19.4683 35.8288 19.0036 36.7386 18.5744 37.6681ZM21.5693 32.331L22.4003 32.8873L23.2312 33.4436C23.771 32.6375 24.3416 31.8536 24.9414 31.0938L24.1565 30.4742L23.3715 29.8546C22.7395 30.6553 22.1381 31.4813 21.5693 32.331ZM25.3615 27.5268L26.0957 28.2057L26.8299 28.8847C27.4879 28.1732 28.1735 27.4875 28.8851 26.8295L28.2061 26.0953L27.5271 25.3612C26.7774 26.0546 26.0549 26.777 25.3615 27.5268ZM29.8549 23.3712L30.4746 24.1561L31.0942 24.941C31.854 24.3412 32.6378 23.7706 33.444 23.2309L32.8877 22.3999L32.3314 21.5689C31.4817 22.1378 30.6556 22.7391 29.8549 23.3712ZM34.9409 19.9665L35.4303 20.8385L35.9198 21.7106C36.7624 21.2377 37.6253 20.7969 38.5069 20.3897L38.0877 19.4819L37.6684 18.574C36.7389 19.0032 35.8292 19.468 34.9409 19.9665ZM40.4981 17.4006L40.8443 18.3388L41.1905 19.2769C42.0949 18.9432 43.0158 18.6438 43.9518 18.3803L43.6808 17.4177L43.4098 16.4551C42.4228 16.733 41.4517 17.0487 40.4981 17.4006ZM46.389 15.7423L46.5831 16.7233L46.7772 17.7043C47.721 17.5176 48.6778 17.3668 49.6463 17.2533L49.5299 16.2601L49.4136 15.2669C48.3928 15.3865 47.3841 15.5455 46.389 15.7423Z" fill="#3A2D29"/>
    <path fill-rule="evenodd" clip-rule="evenodd" d="M58.5721 54.729C60.2948 53.7134 63.5789 52.511 65.8003 52.5409C67.7795 44.8442 64.0145 29.4603 58.12 31.0397C55.2234 31.8159 55.4324 34.2131 55.7571 37.936C56.0157 40.9006 56.3476 44.7058 55.243 49.2026C56.6157 50.637 57.7415 52.5029 58.5721 54.729ZM63.0718 55.4461C62.489 55.6197 61.9347 55.8272 61.4276 56.043C64.9011 57.179 68.4696 59.4095 69.85 63.5257C70.1006 64.1803 71.0332 64.1824 71.2839 63.5278C73.6697 57.7689 68.8528 53.4698 63.0718 55.4461ZM39.3501 54.9061C40.7629 49.6878 46.8571 46.348 51.9697 49.6098C53.5433 50.6508 54.8554 52.3064 55.8337 54.466C50.6293 52.7741 45.2591 53.2919 40.4428 55.7914C39.8493 56.0948 39.1824 55.5513 39.3501 54.9061ZM58.6083 57.8645C55.2104 64.5333 47.8492 72.0756 40.0381 74.4369C40.8013 74.9985 41.7883 75.2454 42.7836 75.0422C51.5889 73.2847 58.9718 67.3258 62.9294 59.3003C61.1681 58.3757 59.5268 58.0077 58.6083 57.8645ZM56.2104 57.1775C52.8805 63.4292 46.0333 70.2534 38.775 72.2847C38.7499 72.2924 38.7257 72.3017 38.7016 72.311L38.6923 72.3146C38.4144 70.9042 39.0383 69.4583 40.2754 68.6942C43.3589 66.7898 48.9552 62.6786 52.5678 56.1661C53.7758 56.3754 54.9919 56.7128 56.2104 57.1775Z" fill="#E5AD4E"/>
    <path fill-rule="evenodd" clip-rule="evenodd" d="M63.1099 8.25151L64.539 1.02785C61.1305 0.353543 57.6066 0 54.0002 0C50.3938 0 46.8699 0.353543 43.4614 1.02785L44.8905 8.25151C44.8919 8.25121 44.8934 8.25092 44.8949 8.25063L45.5655 11.6403C48.288 11.1016 51.1077 10.8182 54.0004 10.8182C56.893 10.8182 59.7127 11.1016 62.4353 11.6403L63.1058 8.2507C63.1072 8.25097 63.1085 8.25124 63.1099 8.25151ZM79.907 15.2145L84.0035 9.0955C89.8923 13.038 94.9624 18.108 98.9049 23.9968L92.7859 28.0934C92.7852 28.0923 92.7845 28.0913 92.7838 28.0903L89.9129 30.0123C86.7583 25.3003 82.7 21.242 77.9881 18.0874L79.9101 15.2165C79.909 15.2159 79.908 15.2152 79.907 15.2145ZM106.973 43.4614L99.7489 44.8905C99.7491 44.8918 99.7494 44.8932 99.7497 44.8945L96.3601 45.5651C96.8987 48.2877 97.1822 51.1074 97.1822 54C97.1822 56.8926 96.8987 59.7123 96.3601 62.4349L99.7497 63.1055C99.7495 63.107 99.7492 63.1084 99.7489 63.1099L106.973 64.539C107.647 61.1305 108 57.6066 108 54.0002C108 50.3938 107.647 46.8699 106.973 43.4614ZM92.7859 79.907L98.9049 84.0035C94.9624 89.8923 89.8923 94.9624 84.0035 98.9049L79.907 92.7859C79.9081 92.7852 79.9092 92.7844 79.9102 92.7837L77.9881 89.9126C82.7 86.758 86.7583 82.6997 89.9129 77.9877L92.784 79.9098C92.7846 79.9089 92.7853 79.9079 92.7859 79.907ZM64.539 106.973L63.1099 99.7489C63.1086 99.7491 63.1072 99.7494 63.1059 99.7497L62.4353 96.3597C59.7127 96.8984 56.893 97.1818 54.0004 97.1818C51.1077 97.1818 48.288 96.8984 45.5655 96.3597L44.8948 99.7497C44.8934 99.7494 44.8919 99.7492 44.8905 99.7489L43.4614 106.973C46.8699 107.647 50.3938 108 54.0002 108C57.6066 108 61.1305 107.647 64.539 106.973ZM28.0934 92.7859L23.9968 98.9049C18.108 94.9624 13.038 89.8923 9.0955 84.0035L15.2145 79.907C15.2151 79.908 15.2158 79.909 15.2165 79.91L18.0878 77.9877C21.2424 82.6997 25.3007 86.758 30.0127 89.9126L28.0904 92.7839C28.0914 92.7846 28.0924 92.7852 28.0934 92.7859ZM1.02784 64.539L8.25151 63.1099C8.25122 63.1085 8.25093 63.107 8.25064 63.1055L11.6406 62.4349C11.102 59.7123 10.8185 56.8926 10.8185 54C10.8185 51.1074 11.102 48.2877 11.6406 45.5651L8.25071 44.8945C8.25097 44.8931 8.25124 44.8918 8.2515 44.8905L1.02784 43.4614C0.353536 46.8699 0 50.3938 0 54.0002C0 57.6066 0.353536 61.1305 1.02784 64.539ZM15.2145 28.0934L9.0955 23.9968C13.0379 18.108 18.108 13.038 23.9968 9.0955L28.0934 15.2145C28.0924 15.2151 28.0915 15.2157 28.0905 15.2164L30.0127 18.0874C25.3007 21.242 21.2424 25.3003 18.0878 30.0123L15.2167 28.0901C15.2159 28.0912 15.2152 28.0923 15.2145 28.0934Z" fill="#E5AD4E"/>
    <defs>
    <linearGradient id="paint0_linear_712_118364" x1="54.0005" y1="1.22729" x2="54.0005" y2="106.773" gradientUnits="userSpaceOnUse">
    <stop stop-color="#4D3791"/>
    <stop offset="1" stop-color="#2A2972"/>
    </linearGradient>
    <linearGradient id="paint1_linear_712_118364" x1="54.0005" y1="1.22729" x2="54.0005" y2="106.773" gradientUnits="userSpaceOnUse">
    <stop stop-color="#9D7F68"/>
    <stop offset="1" stop-color="#B58356"/>
    </linearGradient>
    <linearGradient id="paint2_linear_712_118364" x1="54.0004" y1="7.55994" x2="54.0004" y2="100.44" gradientUnits="userSpaceOnUse">
    <stop offset="0.0001" stop-color="#543F2B"/>
    <stop offset="1" stop-color="#9D7F68"/>
    </linearGradient>
    </defs>
    </svg>
    