<svg width="445" height="262" viewBox="0 0 445 262" fill="none" xmlns="http://www.w3.org/2000/svg">
<ellipse opacity="0.08" cx="217.18" cy="130.855" rx="130.18" ry="130.855" fill="#E5AD4E"/>
<ellipse opacity="0.24" cx="217.181" cy="130.855" rx="103.378" ry="103.914" fill="#E5AD4E"/>
<ellipse cx="217.177" cy="130.855" rx="82.3198" ry="82.7463" fill="#E5AD4E"/>
<ellipse cx="169.322" cy="100.065" rx="7.65765" ry="7.69733" fill="#F2BE66"/>
<ellipse cx="186.551" cy="84.6706" rx="3.82883" ry="3.84867" fill="#F2BE66"/>
<ellipse cx="266.955" cy="94.2924" rx="9.57207" ry="9.62166" fill="#F2BE66"/>
<ellipse cx="215.265" cy="71.2003" rx="5.74324" ry="5.773" fill="#F2BE66"/>
<rect x="355" y="115" width="89.9774" height="15.3947" rx="7.69733" fill="url(#paint0_linear_201_11129)"/>
<rect x="387.66" y="47.2433" width="15.3153" height="15.3947" rx="7.65765" fill="url(#paint1_linear_201_11129)"/>
<rect x="355.115" y="85.73" width="7.65765" height="7.69733" rx="3.82883" fill="url(#paint2_linear_201_11129)"/>
<path fill-rule="evenodd" clip-rule="evenodd" d="M-10.541 47.2433C-10.541 40.8666 -5.3717 35.6973 1.00498 35.6973H46.8319C53.2086 35.6973 58.3779 40.8666 58.3779 47.2433C58.3779 53.62 53.2086 58.7893 46.8319 58.7893H44.9984C40.7552 58.7987 37.3184 62.2413 37.3184 66.4866C37.3184 70.7377 40.7646 74.184 45.0157 74.184H21.9615C26.2126 74.184 29.6588 70.7377 29.6588 66.4866C29.6588 62.2413 26.222 58.7987 21.9788 58.7893H1.00497C-5.3717 58.7893 -10.541 53.62 -10.541 47.2433ZM10.5195 85.73C10.5195 79.3533 15.6888 74.184 22.0655 74.184H88.951C95.3277 74.184 100.497 79.3533 100.497 85.73C100.497 92.1066 95.3276 97.276 88.951 97.276H22.0655C15.6888 97.276 10.5195 92.1066 10.5195 85.73Z" fill="url(#paint3_linear_201_11129)"/>
<path fill-rule="evenodd" clip-rule="evenodd" d="M-15 130.312C-15 126.274 -11.7261 123 -7.6875 123H21.3363C25.3749 123 28.6488 126.274 28.6488 130.312C28.6488 134.351 25.3749 137.625 21.3363 137.625H20.181C17.4911 137.628 15.3113 139.809 15.3113 142.5C15.3113 145.192 17.4939 147.375 20.1863 147.375H48.0115C52.0501 147.375 55.324 150.649 55.324 154.687C55.324 158.726 52.0501 162 48.0115 162H5.65051C1.61192 162 -1.66199 158.726 -1.66199 154.687C-1.66199 150.649 1.61192 147.375 5.6505 147.375H5.58544C8.27783 147.375 10.4604 145.192 10.4604 142.5C10.4604 139.809 8.28072 137.628 5.59078 137.625H-7.6875C-11.7261 137.625 -15 134.351 -15 130.312Z" fill="url(#paint4_linear_201_11129)"/>
<path fill-rule="evenodd" clip-rule="evenodd" d="M406.262 19.3702C406.262 15.852 403.41 13 399.892 13H374.608C371.09 13 368.238 15.852 368.238 19.3702C368.238 22.8884 371.09 25.7404 374.608 25.7404H375.653C377.979 25.7633 379.857 27.6558 379.857 29.987C379.857 32.3324 377.956 34.2338 375.611 34.2338H388.331C385.985 34.2338 384.084 32.3324 384.084 29.987C384.084 27.6558 385.962 25.7633 388.288 25.7404H399.892C403.41 25.7404 406.262 22.8884 406.262 19.3702ZM394.643 40.6042C394.643 37.086 391.791 34.234 388.272 34.234H351.37C347.852 34.234 345 37.086 345 40.6042C345 44.1224 347.852 46.9744 351.37 46.9744H388.272C391.791 46.9744 394.643 44.1224 394.643 40.6042Z" fill="url(#paint5_linear_201_11129)"/>
<defs>
<linearGradient id="paint0_linear_201_11129" x1="399.989" y1="115" x2="399.989" y2="130.395" gradientUnits="userSpaceOnUse">
<stop stop-color="#665278" stop-opacity="0"/>
<stop offset="1" stop-color="#665278"/>
</linearGradient>
<linearGradient id="paint1_linear_201_11129" x1="395.318" y1="47.2433" x2="395.318" y2="62.638" gradientUnits="userSpaceOnUse">
<stop stop-color="#665278" stop-opacity="0"/>
<stop offset="1" stop-color="#665278"/>
</linearGradient>
<linearGradient id="paint2_linear_201_11129" x1="358.944" y1="85.73" x2="358.944" y2="93.4273" gradientUnits="userSpaceOnUse">
<stop stop-color="#665278" stop-opacity="0"/>
<stop offset="1" stop-color="#665278"/>
</linearGradient>
<linearGradient id="paint3_linear_201_11129" x1="44.978" y1="35.6973" x2="44.978" y2="97.276" gradientUnits="userSpaceOnUse">
<stop stop-color="#665278" stop-opacity="0"/>
<stop offset="1" stop-color="#665278"/>
</linearGradient>
<linearGradient id="paint4_linear_201_11129" x1="20.162" y1="123" x2="20.162" y2="162" gradientUnits="userSpaceOnUse">
<stop stop-color="#665278" stop-opacity="0"/>
<stop offset="1" stop-color="#665278"/>
</linearGradient>
<linearGradient id="paint5_linear_201_11129" x1="375.631" y1="13" x2="375.631" y2="46.9744" gradientUnits="userSpaceOnUse">
<stop stop-color="#665278" stop-opacity="0"/>
<stop offset="1" stop-color="#665278"/>
</linearGradient>
</defs>
</svg>
