<svg width="205" height="125" viewBox="0 0 205 125" fill="none" xmlns="http://www.w3.org/2000/svg">
<g opacity="0.08">
<mask id="mask0_325_31705" style="mask-type:alpha" maskUnits="userSpaceOnUse" x="0" y="0" width="205" height="125">
<rect width="205" height="125" fill="url(#paint0_linear_325_31705)"/>
</mask>
<g mask="url(#mask0_325_31705)">
<path fill-rule="evenodd" clip-rule="evenodd" d="M-0.354961 -6.30329L-9.0858 -14.446L-17.8166 -6.30329H-14.0749L-9.0858 -10.9563L-4.09674 -6.30329H-0.354961ZM-0.354942 -0.487045L-9.08578 -8.6298L-17.8166 -0.487045H-14.0748L-9.08578 -5.14006L-4.09673 -0.487045H-0.354942ZM-0.354961 34.0228L-9.0858 25.88L-17.8166 34.0228H-14.0749L-9.0858 29.3697L-4.0967 34.0228H-0.354961ZM-0.354942 39.839L-9.08578 31.6963L-17.8166 39.839H-14.0748L-9.08578 35.186L-4.09673 39.839H-0.354942ZM-9.0858 66.206L-0.354961 74.3488H-4.09674L-9.0858 69.6958L-14.0749 74.3488H-17.8166L-9.0858 66.206ZM-9.08578 72.0223L-0.354942 80.165H-4.09673L-9.08578 75.512L-14.0748 80.165H-17.8166L-9.08578 72.0223ZM-0.354961 114.675L-9.0858 106.532L-17.8166 114.675H-14.0749L-9.0858 110.022L-4.09674 114.675H-0.354961ZM-0.354942 120.491L-9.08578 112.348L-17.8166 120.491H-14.0748L-9.08578 115.838L-4.09673 120.491H-0.354942ZM-23.62 5.717L-14.8891 13.8598H-18.6309L-23.62 9.20674L-28.609 13.8598H-32.3508L-23.62 5.717ZM-23.62 11.5333L-14.8891 19.676H-18.6309L-23.62 15.023L-28.609 19.676H-32.3508L-23.62 11.5333ZM-14.8891 54.1858L-23.62 46.043L-32.3508 54.1858H-28.609L-23.62 49.5328L-18.6309 54.1858H-14.8891ZM-14.8891 60.002L-23.62 51.8593L-32.3508 60.002H-28.609L-23.62 55.3491L-18.631 60.002H-14.8891ZM-23.62 86.3691L-14.8891 94.5118H-18.631L-23.62 89.8589L-28.609 94.5118H-32.3508L-23.62 86.3691ZM-23.62 92.1853L-14.8891 100.328H-18.6309L-23.62 95.6751L-28.609 100.328H-32.3508L-23.62 92.1853ZM-14.8891 134.838L-23.62 126.695L-32.3508 134.838H-28.609L-23.62 130.185L-18.6309 134.838H-14.8891ZM-14.8891 140.654L-23.62 132.511L-32.3508 140.654H-28.609L-23.62 136.001L-18.6309 140.654H-14.8891ZM20.5836 -14.446L29.3145 -6.30329H25.5727L20.5836 -10.9563L15.5946 -6.30329H11.8528L20.5836 -14.446ZM20.5836 -8.6298L29.3144 -0.487045H25.5727L20.5836 -5.14006L15.5945 -0.487045H11.8528L20.5836 -8.6298ZM29.3145 34.0228L20.5836 25.88L11.8528 34.0228H15.5945L20.5836 29.3697L25.5727 34.0228H29.3145ZM29.3144 39.839L20.5836 31.6963L11.8528 39.839H15.5945L20.5836 35.186L25.5727 39.839H29.3144ZM20.5836 66.206L29.3145 74.3488H25.5727L20.5836 69.6958L15.5946 74.3488H11.8528L20.5836 66.206ZM20.5836 72.0223L29.3144 80.165H25.5727L20.5836 75.512L15.5945 80.165H11.8528L20.5836 72.0223ZM29.3145 114.675L20.5836 106.532L11.8528 114.675H15.5946L20.5836 110.022L25.5727 114.675H29.3145ZM29.3144 120.491L20.5836 112.348L11.8528 120.491H15.5945L20.5836 115.838L25.5727 120.491H29.3144ZM6.04943 5.717L14.7803 13.8598H11.0385L6.04943 9.20674L1.06037 13.8598H-2.68141L6.04943 5.717ZM6.04942 11.5333L14.7803 19.676H11.0385L6.04942 15.023L1.06036 19.676H-2.68143L6.04942 11.5333ZM14.7803 54.1858L6.04943 46.043L-2.68141 54.1858H1.06037L6.04943 49.5328L11.0385 54.1858H14.7803ZM14.7803 60.002L6.04942 51.8593L-2.68143 60.002H1.06039L6.04942 55.3491L11.0384 60.002H14.7803ZM6.04943 86.3691L14.7803 94.5118H11.0385L6.04943 89.8589L1.06041 94.5118H-2.68141L6.04943 86.3691ZM6.04942 92.1853L14.7803 100.328H11.0385L6.04942 95.6751L1.06036 100.328H-2.68143L6.04942 92.1853ZM14.7803 134.838L6.04943 126.695L-2.68141 134.838H1.06037L6.04943 130.185L11.0385 134.838H14.7803ZM14.7803 140.654L6.04942 132.511L-2.68143 140.654H1.06036L6.04942 136.001L11.0385 140.654H14.7803ZM50.2529 -14.446L58.9837 -6.30329H55.2419L50.2529 -10.9563L45.2638 -6.30329H41.522L50.2529 -14.446ZM50.2529 -8.6298L58.9837 -0.487045H55.242L50.2529 -5.14006L45.2638 -0.487045H41.5221L50.2529 -8.6298ZM58.9837 34.0228L50.2529 25.88L41.522 34.0228H45.2638L50.2529 29.3697L55.242 34.0228H58.9837ZM58.9837 39.839L50.2529 31.6963L41.5221 39.839H45.2638L50.2529 35.186L55.242 39.839H58.9837ZM50.2529 66.206L58.9837 74.3488H55.2419L50.2529 69.6958L45.2638 74.3488H41.522L50.2529 66.206ZM50.2529 72.0223L58.9837 80.165H55.242L50.2529 75.512L45.2638 80.165H41.5221L50.2529 72.0223ZM58.9837 114.675L50.2529 106.532L41.522 114.675H45.2638L50.2529 110.022L55.2419 114.675H58.9837ZM58.9837 120.491L50.2529 112.348L41.5221 120.491H45.2638L50.2529 115.838L55.242 120.491H58.9837ZM35.7187 5.717L44.4495 13.8598H40.7077L35.7187 9.20674L30.7296 13.8598H26.9878L35.7187 5.717ZM35.7187 11.5333L44.4496 19.676H40.7078L35.7187 15.023L30.7297 19.676H26.9879L35.7187 11.5333ZM44.4495 54.1858L35.7187 46.043L26.9878 54.1858H30.7296L35.7187 49.5328L40.7077 54.1858H44.4495ZM44.4496 60.002L35.7187 51.8593L26.9879 60.002H30.7297L35.7187 55.3491L40.7077 60.002H44.4496ZM35.7187 86.3691L44.4495 94.5118H40.7077L35.7187 89.8589L30.7297 94.5118H26.9878L35.7187 86.3691ZM35.7187 92.1853L44.4496 100.328H40.7078L35.7187 95.6751L30.7297 100.328H26.9879L35.7187 92.1853ZM44.4495 134.838L35.7187 126.695L26.9878 134.838H30.7296L35.7187 130.185L40.7077 134.838H44.4495ZM44.4496 140.654L35.7187 132.511L26.9879 140.654H30.7297L35.7187 136.001L40.7078 140.654H44.4496ZM79.9223 -14.446L88.6531 -6.30329H84.9113L79.9223 -10.9563L74.9332 -6.30329H71.1914L79.9223 -14.446ZM79.9223 -8.6298L88.6531 -0.487045H84.9113L79.9223 -5.14006L74.9332 -0.487045H71.1914L79.9223 -8.6298ZM88.6531 34.0228L79.9223 25.88L71.1914 34.0228H74.9332L79.9223 29.3697L84.9114 34.0228H88.6531ZM88.6531 39.839L79.9223 31.6963L71.1914 39.839H74.9332L79.9223 35.186L84.9113 39.839H88.6531ZM79.9223 66.206L88.6531 74.3488H84.9113L79.9223 69.6958L74.9332 74.3488H71.1914L79.9223 66.206ZM79.9223 72.0223L88.6531 80.165H84.9113L79.9223 75.512L74.9332 80.165H71.1914L79.9223 72.0223ZM88.6531 114.675L79.9223 106.532L71.1914 114.675H74.9332L79.9223 110.022L84.9113 114.675H88.6531ZM88.6531 120.491L79.9223 112.348L71.1914 120.491H74.9332L79.9223 115.838L84.9113 120.491H88.6531ZM65.3882 5.717L74.1191 13.8598H70.3773L65.3882 9.20674L60.3992 13.8598H56.6574L65.3882 5.717ZM65.3883 11.5333L74.1191 19.676H70.3773L65.3883 15.023L60.3992 19.676H56.6574L65.3883 11.5333ZM74.1191 54.1858L65.3882 46.043L56.6574 54.1858H60.3992L65.3882 49.5328L70.3773 54.1858H74.1191ZM74.1191 60.002L65.3883 51.8593L56.6574 60.002H60.3992L65.3883 55.3491L70.3773 60.002H74.1191ZM65.3882 86.3691L74.1191 94.5118H70.3772L65.3882 89.8589L60.3992 94.5118H56.6574L65.3882 86.3691ZM65.3883 92.1853L74.1191 100.328H70.3773L65.3883 95.6751L60.3992 100.328H56.6574L65.3883 92.1853ZM74.1191 134.838L65.3882 126.695L56.6574 134.838H60.3992L65.3882 130.185L70.3773 134.838H74.1191ZM74.1191 140.654L65.3883 132.511L56.6574 140.654H60.3992L65.3883 136.001L70.3773 140.654H74.1191ZM109.592 -14.446L118.322 -6.30329H114.581L109.592 -10.9563L104.602 -6.30329H100.861L109.592 -14.446ZM109.592 -8.6298L118.322 -0.487045H114.581L109.592 -5.14006L104.602 -0.487045H100.861L109.592 -8.6298ZM118.322 34.0228L109.592 25.88L100.861 34.0228H104.602L109.592 29.3697L114.581 34.0228H118.322ZM118.322 39.839L109.592 31.6963L100.861 39.839H104.602L109.592 35.186L114.581 39.839H118.322ZM109.592 66.206L118.322 74.3488H114.581L109.592 69.6958L104.602 74.3488H100.861L109.592 66.206ZM109.592 72.0223L118.322 80.165H114.581L109.592 75.512L104.602 80.165H100.861L109.592 72.0223ZM118.322 114.675L109.592 106.532L100.861 114.675H104.602L109.592 110.022L114.581 114.675H118.322ZM118.322 120.491L109.592 112.348L100.861 120.491H104.602L109.592 115.838L114.581 120.491H118.322ZM95.0574 5.717L103.788 13.8598H100.046L95.0574 9.20674L90.0683 13.8598H86.3265L95.0574 5.717ZM95.0573 11.5333L103.788 19.676H100.046L95.0573 15.023L90.0683 19.676H86.3265L95.0573 11.5333ZM103.788 54.1858L95.0574 46.043L86.3265 54.1858H90.0683L95.0574 49.5328L100.046 54.1858H103.788ZM103.788 60.002L95.0573 51.8593L86.3265 60.002H90.0683L95.0573 55.3491L100.046 60.002H103.788ZM95.0574 86.3691L103.788 94.5118H100.046L95.0574 89.8589L90.0683 94.5118H86.3265L95.0574 86.3691ZM95.0573 92.1853L103.788 100.328H100.046L95.0573 95.6751L90.0683 100.328H86.3265L95.0573 92.1853ZM103.788 134.838L95.0574 126.695L86.3265 134.838H90.0683L95.0574 130.185L100.046 134.838H103.788ZM103.788 140.654L95.0573 132.511L86.3265 140.654H90.0683L95.0573 136.001L100.046 140.654H103.788ZM139.261 -14.446L147.992 -6.30329H144.25L139.261 -10.9563L134.272 -6.30329H130.53L139.261 -14.446ZM139.261 -8.6298L147.992 -0.487045H144.25L139.261 -5.14006L134.272 -0.487045H130.53L139.261 -8.6298ZM147.992 34.0228L139.261 25.88L130.53 34.0228H134.272L139.261 29.3697L144.25 34.0228H147.992ZM147.992 39.839L139.261 31.6963L130.53 39.839H134.272L139.261 35.186L144.25 39.839H147.992ZM139.261 66.206L147.992 74.3488H144.25L139.261 69.6958L134.272 74.3488H130.53L139.261 66.206ZM139.261 72.0223L147.992 80.165H144.25L139.261 75.512L134.272 80.165H130.53L139.261 72.0223ZM147.992 114.675L139.261 106.532L130.53 114.675H134.272L139.261 110.022L144.25 114.675H147.992ZM147.992 120.491L139.261 112.348L130.53 120.491H134.272L139.261 115.838L144.25 120.491H147.992ZM124.727 5.717L133.458 13.8598H129.716L124.727 9.20674L119.738 13.8598H115.996L124.727 5.717ZM124.727 11.5333L133.458 19.676H129.716L124.727 15.023L119.738 19.676H115.996L124.727 11.5333ZM133.458 54.1858L124.727 46.043L115.996 54.1858H119.738L124.727 49.5328L129.716 54.1858H133.458ZM133.458 60.002L124.727 51.8593L115.996 60.002H119.738L124.727 55.3491L129.716 60.002H133.458ZM124.727 86.3691L133.458 94.5118H129.716L124.727 89.8589L119.738 94.5118H115.996L124.727 86.3691ZM124.727 92.1853L133.458 100.328H129.716L124.727 95.6751L119.738 100.328H115.996L124.727 92.1853ZM133.458 134.838L124.727 126.695L115.996 134.838H119.738L124.727 130.185L129.716 134.838H133.458ZM133.458 140.654L124.727 132.511L115.996 140.654H119.738L124.727 136.001L129.716 140.654H133.458ZM168.93 -14.446L177.661 -6.30329H173.919L168.93 -10.9563L163.941 -6.30329H160.199L168.93 -14.446ZM168.93 -8.6298L177.661 -0.487045H173.919L168.93 -5.14006L163.941 -0.487045H160.199L168.93 -8.6298ZM177.661 34.0228L168.93 25.88L160.199 34.0228H163.941L168.93 29.3697L173.919 34.0228H177.661ZM177.661 39.839L168.93 31.6963L160.199 39.839H163.941L168.93 35.186L173.919 39.839H177.661ZM168.93 66.206L177.661 74.3488H173.919L168.93 69.6958L163.941 74.3488H160.199L168.93 66.206ZM168.93 72.0223L177.661 80.165H173.919L168.93 75.512L163.941 80.165H160.199L168.93 72.0223ZM177.661 114.675L168.93 106.532L160.199 114.675H163.941L168.93 110.022L173.919 114.675H177.661ZM177.661 120.491L168.93 112.348L160.199 120.491H163.941L168.93 115.838L173.919 120.491H177.661ZM154.396 5.717L163.127 13.8598H159.385L154.396 9.20674L149.407 13.8598H145.665L154.396 5.717ZM154.396 11.5333L163.127 19.676H159.385L154.396 15.023L149.407 19.676H145.665L154.396 11.5333ZM163.127 54.1858L154.396 46.043L145.665 54.1858H149.407L154.396 49.5328L159.385 54.1858H163.127ZM163.127 60.002L154.396 51.8593L145.665 60.002H149.407L154.396 55.3491L159.385 60.002H163.127ZM154.396 86.3691L163.127 94.5118H159.385L154.396 89.8589L149.407 94.5118H145.665L154.396 86.3691ZM154.396 92.1853L163.127 100.328H159.385L154.396 95.6751L149.407 100.328H145.665L154.396 92.1853ZM163.127 134.838L154.396 126.695L145.665 134.838H149.407L154.396 130.185L159.385 134.838H163.127ZM163.127 140.654L154.396 132.511L145.665 140.654H149.407L154.396 136.001L159.385 140.654H163.127ZM198.6 -14.446L207.33 -6.30329H203.589L198.6 -10.9563L193.611 -6.30329H189.869L198.6 -14.446ZM198.6 -8.6298L207.33 -0.487045H203.589L198.6 -5.14006L193.611 -0.487045H189.869L198.6 -8.6298ZM207.33 34.0228L198.6 25.88L189.869 34.0228H193.611L198.6 29.3697L203.589 34.0228H207.33ZM207.33 39.839L198.6 31.6963L189.869 39.839H193.611L198.6 35.186L203.589 39.839H207.33ZM198.6 66.206L207.33 74.3488H203.589L198.6 69.6958L193.611 74.3488H189.869L198.6 66.206ZM198.6 72.0223L207.33 80.165H203.589L198.6 75.512L193.611 80.165H189.869L198.6 72.0223ZM207.33 114.675L198.6 106.532L189.869 114.675H193.611L198.6 110.022L203.589 114.675H207.33ZM207.33 120.491L198.6 112.348L189.869 120.491H193.611L198.6 115.838L203.589 120.491H207.33ZM184.066 5.717L192.797 13.8598H189.055L184.066 9.20674L179.076 13.8598H175.335L184.066 5.717ZM184.066 11.5333L192.796 19.676H189.054L184.065 15.023L179.076 19.676H175.335L184.066 11.5333ZM192.797 54.1858L184.066 46.043L175.335 54.1858H179.076L184.066 49.5328L189.055 54.1858H192.797ZM192.796 60.0021L184.066 51.8593L175.335 60.0021H179.076L184.065 55.3491L189.054 60.0021H192.796ZM184.066 86.3691L192.797 94.5118H189.055L184.066 89.8589L179.077 94.5118H175.335L184.066 86.3691ZM184.066 92.1854L192.796 100.328H189.054L184.065 95.6751L179.076 100.328H175.335L184.066 92.1854ZM192.797 134.838L184.066 126.695L175.335 134.838H179.076L184.066 130.185L189.055 134.838H192.797ZM192.796 140.654L184.066 132.511L175.335 140.654H179.076L184.065 136.001L189.054 140.654H192.796ZM228.269 -14.446L237 -6.30329H233.258L228.269 -10.9563L223.28 -6.30329H219.538L228.269 -14.446ZM228.269 -8.6298L237 -0.487045H233.258L228.269 -5.14006L223.28 -0.487045H219.538L228.269 -8.6298ZM237 34.0228L228.269 25.88L219.538 34.0228H223.28L228.269 29.3697L233.258 34.0228H237ZM237 39.839L228.269 31.6963L219.538 39.839H223.28L228.269 35.186L233.258 39.839H237ZM228.269 66.206L237 74.3488H233.258L228.269 69.6958L223.28 74.3488H219.538L228.269 66.206ZM228.269 72.0223L237 80.165H233.258L228.269 75.512L223.28 80.165H219.538L228.269 72.0223ZM237 114.675L228.269 106.532L219.538 114.675H223.28L228.269 110.022L233.258 114.675H237ZM237 120.491L228.269 112.348L219.538 120.491H223.28L228.269 115.838L233.258 120.491H237ZM213.735 5.717L222.466 13.8598H218.724L213.735 9.20674L208.746 13.8598H205.004L213.735 5.717ZM213.735 11.5333L222.466 19.676H218.724L213.735 15.023L208.746 19.676H205.004L213.735 11.5333ZM222.466 54.1858L213.735 46.043L205.004 54.1858H208.746L213.735 49.5328L218.724 54.1858H222.466ZM222.466 60.002L213.735 51.8593L205.004 60.002H208.746L213.735 55.3491L218.724 60.002H222.466ZM213.735 86.3691L222.466 94.5118H218.724L213.735 89.8589L208.746 94.5118H205.004L213.735 86.3691ZM213.735 92.1853L222.466 100.328H218.724L213.735 95.6751L208.746 100.328H205.004L213.735 92.1853ZM222.466 134.838L213.735 126.695L205.004 134.838H208.746L213.735 130.185L218.724 134.838H222.466ZM222.466 140.654L213.735 132.511L205.004 140.654H208.746L213.735 136.001L218.724 140.654H222.466Z" fill="#5CDF9A"/>
</g>
</g>
<defs>
<linearGradient id="paint0_linear_325_31705" x1="102.5" y1="0" x2="102.5" y2="125" gradientUnits="userSpaceOnUse">
<stop stop-color="#473D62"/>
<stop offset="1" stop-color="#473D62" stop-opacity="0"/>
</linearGradient>
</defs>
</svg>
