<svg width="205" height="125" viewBox="0 0 205 125" fill="none" xmlns="http://www.w3.org/2000/svg">
<g opacity="0.08">
<mask id="mask0_325_35089" style="mask-type:alpha" maskUnits="userSpaceOnUse" x="0" y="0" width="205" height="125">
<rect width="205" height="125" fill="url(#paint0_linear_325_35089)"/>
</mask>
<g mask="url(#mask0_325_35089)">
<path fill-rule="evenodd" clip-rule="evenodd" d="M-0.354961 131.303L-9.0858 139.446L-17.8166 131.303H-14.0749L-9.0858 135.956L-4.09674 131.303H-0.354961ZM-0.354942 125.487L-9.08578 133.63L-17.8166 125.487H-14.0748L-9.08578 130.14L-4.09673 125.487H-0.354942ZM-0.354961 90.9772L-9.0858 99.12L-17.8166 90.9772H-14.0749L-9.0858 95.6303L-4.0967 90.9772H-0.354961ZM-0.354942 85.161L-9.08578 93.3037L-17.8166 85.161H-14.0748L-9.08578 89.814L-4.09673 85.161H-0.354942ZM-9.0858 58.794L-0.354961 50.6512H-4.09674L-9.0858 55.3042L-14.0749 50.6512H-17.8166L-9.0858 58.794ZM-9.08578 52.9777L-0.354942 44.835H-4.09673L-9.08578 49.488L-14.0748 44.835H-17.8166L-9.08578 52.9777ZM-0.354961 10.3251L-9.0858 18.4679L-17.8166 10.3251H-14.0749L-9.0858 14.9781L-4.09674 10.3251H-0.354961ZM-0.354942 4.5089L-9.08578 12.6517L-17.8166 4.5089H-14.0748L-9.08578 9.16191L-4.09673 4.5089H-0.354942ZM-23.62 119.283L-14.8891 111.14H-18.6309L-23.62 115.793L-28.609 111.14H-32.3508L-23.62 119.283ZM-23.62 113.467L-14.8891 105.324H-18.6309L-23.62 109.977L-28.609 105.324H-32.3508L-23.62 113.467ZM-14.8891 70.8142L-23.62 78.957L-32.3508 70.8142H-28.609L-23.62 75.4672L-18.6309 70.8142H-14.8891ZM-14.8891 64.998L-23.62 73.1407L-32.3508 64.998H-28.609L-23.62 69.6509L-18.631 64.998H-14.8891ZM-23.62 38.6309L-14.8891 30.4882H-18.631L-23.62 35.1411L-28.609 30.4882H-32.3508L-23.62 38.6309ZM-23.62 32.8147L-14.8891 24.6719H-18.6309L-23.62 29.3249L-28.609 24.6719H-32.3508L-23.62 32.8147ZM-14.8891 -9.83784L-23.62 -1.69508L-32.3508 -9.83784H-28.609L-23.62 -5.18483L-18.6309 -9.83784H-14.8891ZM-14.8891 -15.6541L-23.62 -7.51138L-32.3508 -15.6541H-28.609L-23.62 -11.0011L-18.6309 -15.6541H-14.8891ZM20.5836 139.446L29.3145 131.303H25.5727L20.5836 135.956L15.5946 131.303H11.8528L20.5836 139.446ZM20.5836 133.63L29.3144 125.487H25.5727L20.5836 130.14L15.5945 125.487H11.8528L20.5836 133.63ZM29.3145 90.9772L20.5836 99.12L11.8528 90.9772H15.5945L20.5836 95.6303L25.5727 90.9772H29.3145ZM29.3144 85.161L20.5836 93.3037L11.8528 85.161H15.5945L20.5836 89.814L25.5727 85.161H29.3144ZM20.5836 58.794L29.3145 50.6512H25.5727L20.5836 55.3042L15.5946 50.6512H11.8528L20.5836 58.794ZM20.5836 52.9777L29.3144 44.835H25.5727L20.5836 49.488L15.5945 44.835H11.8528L20.5836 52.9777ZM29.3145 10.3251L20.5836 18.4679L11.8528 10.3251H15.5946L20.5836 14.9781L25.5727 10.3251H29.3145ZM29.3144 4.5089L20.5836 12.6517L11.8528 4.5089H15.5945L20.5836 9.16191L25.5727 4.5089H29.3144ZM6.04943 119.283L14.7803 111.14H11.0385L6.04943 115.793L1.06037 111.14H-2.68141L6.04943 119.283ZM6.04942 113.467L14.7803 105.324H11.0385L6.04942 109.977L1.06036 105.324H-2.68143L6.04942 113.467ZM14.7803 70.8142L6.04943 78.957L-2.68141 70.8142H1.06037L6.04943 75.4672L11.0385 70.8142H14.7803ZM14.7803 64.998L6.04942 73.1407L-2.68143 64.998H1.06039L6.04942 69.6509L11.0384 64.998H14.7803ZM6.04943 38.6309L14.7803 30.4882H11.0385L6.04943 35.1411L1.06041 30.4882H-2.68141L6.04943 38.6309ZM6.04942 32.8147L14.7803 24.6719H11.0385L6.04942 29.3249L1.06036 24.6719H-2.68143L6.04942 32.8147ZM14.7803 -9.83784L6.04943 -1.69508L-2.68141 -9.83784H1.06037L6.04943 -5.18483L11.0385 -9.83784H14.7803ZM14.7803 -15.6541L6.04942 -7.51138L-2.68143 -15.6541H1.06036L6.04942 -11.0011L11.0385 -15.6541H14.7803ZM50.2529 139.446L58.9837 131.303H55.2419L50.2529 135.956L45.2638 131.303H41.522L50.2529 139.446ZM50.2529 133.63L58.9837 125.487H55.242L50.2529 130.14L45.2638 125.487H41.5221L50.2529 133.63ZM58.9837 90.9772L50.2529 99.12L41.522 90.9772H45.2638L50.2529 95.6303L55.242 90.9772H58.9837ZM58.9837 85.161L50.2529 93.3037L41.5221 85.161H45.2638L50.2529 89.814L55.242 85.161H58.9837ZM50.2529 58.794L58.9837 50.6512H55.2419L50.2529 55.3042L45.2638 50.6512H41.522L50.2529 58.794ZM50.2529 52.9777L58.9837 44.835H55.242L50.2529 49.488L45.2638 44.835H41.5221L50.2529 52.9777ZM58.9837 10.3251L50.2529 18.4679L41.522 10.3251H45.2638L50.2529 14.9781L55.2419 10.3251H58.9837ZM58.9837 4.5089L50.2529 12.6517L41.5221 4.5089H45.2638L50.2529 9.16191L55.242 4.5089H58.9837ZM35.7187 119.283L44.4495 111.14H40.7077L35.7187 115.793L30.7296 111.14H26.9878L35.7187 119.283ZM35.7187 113.467L44.4496 105.324H40.7078L35.7187 109.977L30.7297 105.324H26.9879L35.7187 113.467ZM44.4495 70.8142L35.7187 78.957L26.9878 70.8142H30.7296L35.7187 75.4672L40.7077 70.8142H44.4495ZM44.4496 64.998L35.7187 73.1407L26.9879 64.998H30.7297L35.7187 69.6509L40.7077 64.998H44.4496ZM35.7187 38.6309L44.4495 30.4882H40.7077L35.7187 35.1411L30.7297 30.4882H26.9878L35.7187 38.6309ZM35.7187 32.8147L44.4496 24.6719H40.7078L35.7187 29.3249L30.7297 24.6719H26.9879L35.7187 32.8147ZM44.4495 -9.83784L35.7187 -1.69508L26.9878 -9.83784H30.7296L35.7187 -5.18483L40.7077 -9.83784H44.4495ZM44.4496 -15.6541L35.7187 -7.51138L26.9879 -15.6541H30.7297L35.7187 -11.0011L40.7078 -15.6541H44.4496ZM79.9223 139.446L88.6531 131.303H84.9113L79.9223 135.956L74.9332 131.303H71.1914L79.9223 139.446ZM79.9223 133.63L88.6531 125.487H84.9113L79.9223 130.14L74.9332 125.487H71.1914L79.9223 133.63ZM88.6531 90.9772L79.9223 99.12L71.1914 90.9772H74.9332L79.9223 95.6303L84.9114 90.9772H88.6531ZM88.6531 85.161L79.9223 93.3037L71.1914 85.161H74.9332L79.9223 89.814L84.9113 85.161H88.6531ZM79.9223 58.794L88.6531 50.6512H84.9113L79.9223 55.3042L74.9332 50.6512H71.1914L79.9223 58.794ZM79.9223 52.9777L88.6531 44.835H84.9113L79.9223 49.488L74.9332 44.835H71.1914L79.9223 52.9777ZM88.6531 10.3251L79.9223 18.4679L71.1914 10.3251H74.9332L79.9223 14.9781L84.9113 10.3251H88.6531ZM88.6531 4.5089L79.9223 12.6517L71.1914 4.5089H74.9332L79.9223 9.16191L84.9113 4.5089H88.6531ZM65.3882 119.283L74.1191 111.14H70.3773L65.3882 115.793L60.3992 111.14H56.6574L65.3882 119.283ZM65.3883 113.467L74.1191 105.324H70.3773L65.3883 109.977L60.3992 105.324H56.6574L65.3883 113.467ZM74.1191 70.8142L65.3882 78.957L56.6574 70.8142H60.3992L65.3882 75.4672L70.3773 70.8142H74.1191ZM74.1191 64.998L65.3883 73.1407L56.6574 64.998H60.3992L65.3883 69.6509L70.3773 64.998H74.1191ZM65.3882 38.6309L74.1191 30.4882H70.3772L65.3882 35.1411L60.3992 30.4882H56.6574L65.3882 38.6309ZM65.3883 32.8147L74.1191 24.6719H70.3773L65.3883 29.3249L60.3992 24.6719H56.6574L65.3883 32.8147ZM74.1191 -9.83784L65.3882 -1.69508L56.6574 -9.83784H60.3992L65.3882 -5.18483L70.3773 -9.83784H74.1191ZM74.1191 -15.6541L65.3883 -7.51138L56.6574 -15.6541H60.3992L65.3883 -11.0011L70.3773 -15.6541H74.1191ZM109.592 139.446L118.322 131.303H114.581L109.592 135.956L104.602 131.303H100.861L109.592 139.446ZM109.592 133.63L118.322 125.487H114.581L109.592 130.14L104.602 125.487H100.861L109.592 133.63ZM118.322 90.9772L109.592 99.12L100.861 90.9772H104.602L109.592 95.6303L114.581 90.9772H118.322ZM118.322 85.161L109.592 93.3037L100.861 85.161H104.602L109.592 89.814L114.581 85.161H118.322ZM109.592 58.794L118.322 50.6512H114.581L109.592 55.3042L104.602 50.6512H100.861L109.592 58.794ZM109.592 52.9777L118.322 44.835H114.581L109.592 49.488L104.602 44.835H100.861L109.592 52.9777ZM118.322 10.3251L109.592 18.4679L100.861 10.3251H104.602L109.592 14.9781L114.581 10.3251H118.322ZM118.322 4.5089L109.592 12.6517L100.861 4.5089H104.602L109.592 9.16191L114.581 4.5089H118.322ZM95.0574 119.283L103.788 111.14H100.046L95.0574 115.793L90.0683 111.14H86.3265L95.0574 119.283ZM95.0573 113.467L103.788 105.324H100.046L95.0573 109.977L90.0683 105.324H86.3265L95.0573 113.467ZM103.788 70.8142L95.0574 78.957L86.3265 70.8142H90.0683L95.0574 75.4672L100.046 70.8142H103.788ZM103.788 64.998L95.0573 73.1407L86.3265 64.998H90.0683L95.0573 69.6509L100.046 64.998H103.788ZM95.0574 38.6309L103.788 30.4882H100.046L95.0574 35.1411L90.0683 30.4882H86.3265L95.0574 38.6309ZM95.0573 32.8147L103.788 24.6719H100.046L95.0573 29.3249L90.0683 24.6719H86.3265L95.0573 32.8147ZM103.788 -9.83784L95.0574 -1.69508L86.3265 -9.83784H90.0683L95.0574 -5.18483L100.046 -9.83784H103.788ZM103.788 -15.6541L95.0573 -7.51138L86.3265 -15.6541H90.0683L95.0573 -11.0011L100.046 -15.6541H103.788ZM139.261 139.446L147.992 131.303H144.25L139.261 135.956L134.272 131.303H130.53L139.261 139.446ZM139.261 133.63L147.992 125.487H144.25L139.261 130.14L134.272 125.487H130.53L139.261 133.63ZM147.992 90.9772L139.261 99.12L130.53 90.9772H134.272L139.261 95.6303L144.25 90.9772H147.992ZM147.992 85.161L139.261 93.3037L130.53 85.161H134.272L139.261 89.814L144.25 85.161H147.992ZM139.261 58.794L147.992 50.6512H144.25L139.261 55.3042L134.272 50.6512H130.53L139.261 58.794ZM139.261 52.9777L147.992 44.835H144.25L139.261 49.488L134.272 44.835H130.53L139.261 52.9777ZM147.992 10.3251L139.261 18.4679L130.53 10.3251H134.272L139.261 14.9781L144.25 10.3251H147.992ZM147.992 4.5089L139.261 12.6517L130.53 4.5089H134.272L139.261 9.16191L144.25 4.5089H147.992ZM124.727 119.283L133.458 111.14H129.716L124.727 115.793L119.738 111.14H115.996L124.727 119.283ZM124.727 113.467L133.458 105.324H129.716L124.727 109.977L119.738 105.324H115.996L124.727 113.467ZM133.458 70.8142L124.727 78.957L115.996 70.8142H119.738L124.727 75.4672L129.716 70.8142H133.458ZM133.458 64.998L124.727 73.1407L115.996 64.998H119.738L124.727 69.6509L129.716 64.998H133.458ZM124.727 38.6309L133.458 30.4882H129.716L124.727 35.1411L119.738 30.4882H115.996L124.727 38.6309ZM124.727 32.8147L133.458 24.6719H129.716L124.727 29.3249L119.738 24.6719H115.996L124.727 32.8147ZM133.458 -9.83784L124.727 -1.69508L115.996 -9.83784H119.738L124.727 -5.18483L129.716 -9.83784H133.458ZM133.458 -15.6541L124.727 -7.51138L115.996 -15.6541H119.738L124.727 -11.0011L129.716 -15.6541H133.458ZM168.93 139.446L177.661 131.303H173.919L168.93 135.956L163.941 131.303H160.199L168.93 139.446ZM168.93 133.63L177.661 125.487H173.919L168.93 130.14L163.941 125.487H160.199L168.93 133.63ZM177.661 90.9772L168.93 99.12L160.199 90.9772H163.941L168.93 95.6303L173.919 90.9772H177.661ZM177.661 85.161L168.93 93.3037L160.199 85.161H163.941L168.93 89.814L173.919 85.161H177.661ZM168.93 58.794L177.661 50.6512H173.919L168.93 55.3042L163.941 50.6512H160.199L168.93 58.794ZM168.93 52.9777L177.661 44.835H173.919L168.93 49.488L163.941 44.835H160.199L168.93 52.9777ZM177.661 10.3251L168.93 18.4679L160.199 10.3251H163.941L168.93 14.9781L173.919 10.3251H177.661ZM177.661 4.5089L168.93 12.6517L160.199 4.5089H163.941L168.93 9.16191L173.919 4.5089H177.661ZM154.396 119.283L163.127 111.14H159.385L154.396 115.793L149.407 111.14H145.665L154.396 119.283ZM154.396 113.467L163.127 105.324H159.385L154.396 109.977L149.407 105.324H145.665L154.396 113.467ZM163.127 70.8142L154.396 78.957L145.665 70.8142H149.407L154.396 75.4672L159.385 70.8142H163.127ZM163.127 64.998L154.396 73.1407L145.665 64.998H149.407L154.396 69.6509L159.385 64.998H163.127ZM154.396 38.6309L163.127 30.4882H159.385L154.396 35.1411L149.407 30.4882H145.665L154.396 38.6309ZM154.396 32.8147L163.127 24.6719H159.385L154.396 29.3249L149.407 24.6719H145.665L154.396 32.8147ZM163.127 -9.83784L154.396 -1.69508L145.665 -9.83784H149.407L154.396 -5.18483L159.385 -9.83784H163.127ZM163.127 -15.6541L154.396 -7.51138L145.665 -15.6541H149.407L154.396 -11.0011L159.385 -15.6541H163.127ZM198.6 139.446L207.33 131.303H203.589L198.6 135.956L193.611 131.303H189.869L198.6 139.446ZM198.6 133.63L207.33 125.487H203.589L198.6 130.14L193.611 125.487H189.869L198.6 133.63ZM207.33 90.9772L198.6 99.12L189.869 90.9772H193.611L198.6 95.6303L203.589 90.9772H207.33ZM207.33 85.161L198.6 93.3037L189.869 85.161H193.611L198.6 89.814L203.589 85.161H207.33ZM198.6 58.794L207.33 50.6512H203.589L198.6 55.3042L193.611 50.6512H189.869L198.6 58.794ZM198.6 52.9777L207.33 44.835H203.589L198.6 49.488L193.611 44.835H189.869L198.6 52.9777ZM207.33 10.3251L198.6 18.4679L189.869 10.3251H193.611L198.6 14.9781L203.589 10.3251H207.33ZM207.33 4.5089L198.6 12.6517L189.869 4.5089H193.611L198.6 9.16191L203.589 4.5089H207.33ZM184.066 119.283L192.797 111.14H189.055L184.066 115.793L179.076 111.14H175.335L184.066 119.283ZM184.066 113.467L192.796 105.324H189.054L184.065 109.977L179.076 105.324H175.335L184.066 113.467ZM192.797 70.8142L184.066 78.957L175.335 70.8142H179.076L184.066 75.4672L189.055 70.8142H192.797ZM192.796 64.9979L184.066 73.1407L175.335 64.9979H179.076L184.065 69.6509L189.054 64.9979H192.796ZM184.066 38.6309L192.797 30.4882H189.055L184.066 35.1411L179.077 30.4882H175.335L184.066 38.6309ZM184.066 32.8146L192.796 24.6719H189.054L184.065 29.3249L179.076 24.6719H175.335L184.066 32.8146ZM192.797 -9.83784L184.066 -1.69508L175.335 -9.83784H179.076L184.066 -5.18483L189.055 -9.83784H192.797ZM192.796 -15.6541L184.066 -7.51131L175.335 -15.6541H179.076L184.065 -11.0011L189.054 -15.6541H192.796ZM228.269 139.446L237 131.303H233.258L228.269 135.956L223.28 131.303H219.538L228.269 139.446ZM228.269 133.63L237 125.487H233.258L228.269 130.14L223.28 125.487H219.538L228.269 133.63ZM237 90.9772L228.269 99.12L219.538 90.9772H223.28L228.269 95.6303L233.258 90.9772H237ZM237 85.161L228.269 93.3037L219.538 85.161H223.28L228.269 89.814L233.258 85.161H237ZM228.269 58.794L237 50.6512H233.258L228.269 55.3042L223.28 50.6512H219.538L228.269 58.794ZM228.269 52.9777L237 44.835H233.258L228.269 49.488L223.28 44.835H219.538L228.269 52.9777ZM237 10.3251L228.269 18.4679L219.538 10.3251H223.28L228.269 14.9781L233.258 10.3251H237ZM237 4.5089L228.269 12.6517L219.538 4.5089H223.28L228.269 9.16191L233.258 4.5089H237ZM213.735 119.283L222.466 111.14H218.724L213.735 115.793L208.746 111.14H205.004L213.735 119.283ZM213.735 113.467L222.466 105.324H218.724L213.735 109.977L208.746 105.324H205.004L213.735 113.467ZM222.466 70.8142L213.735 78.957L205.004 70.8142H208.746L213.735 75.4672L218.724 70.8142H222.466ZM222.466 64.998L213.735 73.1407L205.004 64.998H208.746L213.735 69.6509L218.724 64.998H222.466ZM213.735 38.6309L222.466 30.4882H218.724L213.735 35.1411L208.746 30.4882H205.004L213.735 38.6309ZM213.735 32.8147L222.466 24.6719H218.724L213.735 29.3249L208.746 24.6719H205.004L213.735 32.8147ZM222.466 -9.83784L213.735 -1.69508L205.004 -9.83784H208.746L213.735 -5.18483L218.724 -9.83784H222.466ZM222.466 -15.6541L213.735 -7.51138L205.004 -15.6541H208.746L213.735 -11.0011L218.724 -15.6541H222.466Z" fill="#E07373"/>
</g>
</g>
<defs>
<linearGradient id="paint0_linear_325_35089" x1="102.5" y1="0" x2="102.5" y2="125" gradientUnits="userSpaceOnUse">
<stop stop-color="#473D62"/>
<stop offset="1" stop-color="#473D62" stop-opacity="0"/>
</linearGradient>
</defs>
</svg>
