<svg width="868" height="388" viewBox="0 0 868 388" fill="none" xmlns="http://www.w3.org/2000/svg">
<g style="mix-blend-mode:luminosity" opacity="0.48">
<rect y="1" width="868" height="386" rx="32" fill="#40324C"/>
<rect width="868" height="388" rx="32" fill="url(#paint0_linear_78_11721)"/>
<mask id="mask0_78_11721" style="mask-type:alpha" maskUnits="userSpaceOnUse" x="0" y="0" width="868" height="388">
<rect width="868" height="388" rx="32" fill="#C4C4C4"/>
</mask>
<g mask="url(#mask0_78_11721)">
<ellipse opacity="0.08" cx="434.215" cy="195.186" rx="130.18" ry="130.855" fill="#E5AD4E"/>
<ellipse opacity="0.24" cx="434.216" cy="195.186" rx="103.378" ry="103.914" fill="#E5AD4E"/>
<ellipse cx="434.212" cy="195.186" rx="82.3198" ry="82.7463" fill="#E5AD4E"/>
<ellipse cx="386.357" cy="164.397" rx="7.65765" ry="7.69733" fill="#F2BE66"/>
<ellipse cx="403.587" cy="149.002" rx="3.82883" ry="3.84867" fill="#F2BE66"/>
<ellipse cx="483.99" cy="158.624" rx="9.57207" ry="9.62166" fill="#F2BE66"/>
<ellipse cx="432.3" cy="135.532" rx="5.74324" ry="5.773" fill="#F2BE66"/>
<rect x="512.709" y="83.575" width="89.9774" height="15.3947" rx="7.69733" fill="url(#paint1_linear_78_11721)"/>
<rect x="625.66" y="83.575" width="15.3153" height="15.3947" rx="7.65765" fill="url(#paint2_linear_78_11721)"/>
<rect x="593.115" y="122.062" width="7.65765" height="7.69733" rx="3.82883" fill="url(#paint3_linear_78_11721)"/>
<path fill-rule="evenodd" clip-rule="evenodd" d="M227.459 83.5749C227.459 77.1982 232.628 72.0289 239.005 72.0289H284.832C291.209 72.0289 296.378 77.1982 296.378 83.5749C296.378 89.9516 291.209 95.1209 284.832 95.1209H282.998C278.755 95.1302 275.318 98.5729 275.318 102.818C275.318 107.069 278.765 110.516 283.016 110.516H259.961C264.213 110.516 267.659 107.069 267.659 102.818C267.659 98.5729 264.222 95.1302 259.979 95.1209H239.005C232.628 95.1209 227.459 89.9516 227.459 83.5749ZM248.52 122.062C248.52 115.685 253.689 110.516 260.066 110.516H326.951C333.328 110.516 338.497 115.685 338.497 122.062C338.497 128.438 333.328 133.608 326.951 133.608H260.066C253.689 133.608 248.52 128.438 248.52 122.062Z" fill="url(#paint4_linear_78_11721)"/>
<path fill-rule="evenodd" clip-rule="evenodd" d="M-47 119.321C-47 110.474 -39.8285 103.303 -30.9821 103.303H32.5944C41.4408 103.303 48.6123 110.474 48.6123 119.321C48.6123 128.167 41.4408 135.339 32.5944 135.339H30.0493C24.1635 135.352 19.3965 140.128 19.3965 146.017C19.3965 151.915 24.1775 156.696 30.0751 156.696H-1.90781C3.98984 156.696 8.77082 151.915 8.77082 146.017C8.77082 140.128 4.00379 135.352 -1.88199 135.339H-30.9821C-39.8285 135.339 -47 128.167 -47 119.321ZM-17.7832 172.714C-17.7832 163.867 -10.6117 156.696 -1.76525 156.696H91.026C99.8725 156.696 107.044 163.867 107.044 172.714C107.044 181.56 99.8725 188.732 91.026 188.732H-1.76526C-10.6117 188.732 -17.7832 181.56 -17.7832 172.714Z" fill="url(#paint5_linear_78_11721)"/>
<path fill-rule="evenodd" clip-rule="evenodd" d="M467 217.738C467 204.073 478.078 192.995 491.743 192.995H589.951C603.616 192.995 614.694 204.073 614.694 217.738C614.694 231.403 603.616 242.481 589.951 242.481H586.013C576.924 242.506 569.564 249.882 569.564 258.976C569.564 268.087 576.95 275.472 586.06 275.472H536.655C545.765 275.472 553.15 268.087 553.15 258.976C553.15 249.882 545.79 242.506 536.701 242.481H491.743C478.078 242.481 467 231.403 467 217.738ZM512.131 300.215C512.131 286.55 523.209 275.472 536.874 275.472H680.21C693.875 275.472 704.953 286.55 704.953 300.215C704.953 313.88 693.875 324.958 680.21 324.958H536.874C523.209 324.958 512.131 313.88 512.131 300.215Z" fill="url(#paint6_linear_78_11721)"/>
<path fill-rule="evenodd" clip-rule="evenodd" d="M724 116.92C724 104.403 734.147 94.256 746.664 94.256H836.617C849.133 94.256 859.28 104.403 859.28 116.92C859.28 129.436 849.133 139.583 836.617 139.583H833.016C824.687 139.602 817.941 146.359 817.941 154.692C817.941 163.036 824.706 169.801 833.05 169.801H919.29C931.807 169.801 941.954 179.948 941.954 192.464C941.954 204.981 931.807 215.128 919.29 215.128H788.001C775.485 215.128 765.338 204.981 765.338 192.464C765.338 179.948 775.485 169.801 788.001 169.801H787.798C796.143 169.801 802.907 163.036 802.907 154.692C802.907 146.359 796.161 139.602 787.833 139.583H746.664C734.147 139.583 724 129.436 724 116.92Z" fill="url(#paint7_linear_78_11721)"/>
<path fill-rule="evenodd" clip-rule="evenodd" d="M489.734 124.583C489.734 121.065 486.882 118.213 483.364 118.213H458.08C454.562 118.213 451.71 121.065 451.71 124.583C451.71 128.101 454.562 130.953 458.08 130.953H459.126C461.452 130.976 463.33 132.869 463.33 135.2C463.33 137.545 461.429 139.447 459.083 139.447H471.804C469.458 139.447 467.557 137.545 467.557 135.2C467.557 132.869 469.435 130.976 471.761 130.953H483.364C486.882 130.953 489.734 128.101 489.734 124.583ZM478.115 145.817C478.115 142.299 475.263 139.447 471.745 139.447H434.843C431.325 139.447 428.473 142.299 428.473 145.817C428.473 149.335 431.325 152.187 434.843 152.187H471.745C475.263 152.187 478.115 149.335 478.115 145.817Z" fill="url(#paint8_linear_78_11721)"/>
<path fill-rule="evenodd" clip-rule="evenodd" d="M272.205 250.277C272.205 240.847 264.561 233.202 255.131 233.202H187.361C177.931 233.202 170.286 240.847 170.286 250.277C170.286 259.707 177.931 267.351 187.361 267.351H190.163C196.397 267.412 201.432 272.485 201.432 278.733C201.432 285.02 196.335 290.116 190.049 290.116H224.144C217.857 290.116 212.761 285.02 212.761 278.733C212.761 272.485 217.796 267.412 224.03 267.351H255.131C264.561 267.351 272.205 259.707 272.205 250.277ZM241.062 307.191C241.062 297.761 233.418 290.117 223.988 290.117H125.076C115.646 290.117 108.002 297.761 108.002 307.191C108.002 316.621 115.646 324.266 125.076 324.266H223.988C233.418 324.266 241.062 316.621 241.062 307.191Z" fill="url(#paint9_linear_78_11721)"/>
</g>
<rect y="1" width="868" height="387" rx="32" fill="url(#paint10_linear_78_11721)"/>
</g>
<defs>
<linearGradient id="paint0_linear_78_11721" x1="434" y1="0" x2="434" y2="388" gradientUnits="userSpaceOnUse">
<stop stop-color="#3C2E47"/>
<stop offset="1" stop-color="#705E31"/>
</linearGradient>
<linearGradient id="paint1_linear_78_11721" x1="557.698" y1="83.575" x2="557.698" y2="98.9696" gradientUnits="userSpaceOnUse">
<stop stop-color="#665278" stop-opacity="0"/>
<stop offset="1" stop-color="#665278"/>
</linearGradient>
<linearGradient id="paint2_linear_78_11721" x1="633.318" y1="83.575" x2="633.318" y2="98.9696" gradientUnits="userSpaceOnUse">
<stop stop-color="#665278" stop-opacity="0"/>
<stop offset="1" stop-color="#665278"/>
</linearGradient>
<linearGradient id="paint3_linear_78_11721" x1="596.944" y1="122.062" x2="596.944" y2="129.759" gradientUnits="userSpaceOnUse">
<stop stop-color="#665278" stop-opacity="0"/>
<stop offset="1" stop-color="#665278"/>
</linearGradient>
<linearGradient id="paint4_linear_78_11721" x1="282.978" y1="72.0289" x2="282.978" y2="133.608" gradientUnits="userSpaceOnUse">
<stop stop-color="#665278" stop-opacity="0"/>
<stop offset="1" stop-color="#665278"/>
</linearGradient>
<linearGradient id="paint5_linear_78_11721" x1="30.022" y1="103.303" x2="30.022" y2="188.732" gradientUnits="userSpaceOnUse">
<stop stop-color="#665278" stop-opacity="0"/>
<stop offset="1" stop-color="#665278"/>
</linearGradient>
<linearGradient id="paint6_linear_78_11721" x1="585.977" y1="192.995" x2="585.977" y2="324.958" gradientUnits="userSpaceOnUse">
<stop stop-color="#665278" stop-opacity="0"/>
<stop offset="1" stop-color="#665278"/>
</linearGradient>
<linearGradient id="paint7_linear_78_11721" x1="832.977" y1="94.256" x2="832.977" y2="215.128" gradientUnits="userSpaceOnUse">
<stop stop-color="#665278" stop-opacity="0"/>
<stop offset="1" stop-color="#665278"/>
</linearGradient>
<linearGradient id="paint8_linear_78_11721" x1="459.103" y1="118.213" x2="459.103" y2="152.187" gradientUnits="userSpaceOnUse">
<stop stop-color="#665278" stop-opacity="0"/>
<stop offset="1" stop-color="#665278"/>
</linearGradient>
<linearGradient id="paint9_linear_78_11721" x1="190.103" y1="233.202" x2="190.103" y2="324.266" gradientUnits="userSpaceOnUse">
<stop stop-color="#665278" stop-opacity="0"/>
<stop offset="1" stop-color="#665278"/>
</linearGradient>
<linearGradient id="paint10_linear_78_11721" x1="434" y1="1" x2="434" y2="388" gradientUnits="userSpaceOnUse">
<stop stop-color="#3A2D55" stop-opacity="0"/>
<stop offset="1" stop-color="#3A2D55"/>
</linearGradient>
</defs>
</svg>
