<svg width="295" height="103" viewBox="0 0 295 103" fill="none" xmlns="http://www.w3.org/2000/svg">
<path d="M261.893 70.3771C263.85 72.085 264.711 74.3064 265.247 76.0673C265.344 76.3882 265.687 76.5684 266.029 76.4846C267.71 76.072 269.447 75.618 271.255 75.1335C272.524 74.7937 273.755 74.4581 274.951 74.1212C275.161 74.062 275.329 73.908 275.402 73.7108C276.896 69.924 276.644 66.1797 276.578 66.171C277.623 68.421 277.555 70.693 277.349 72.4825C277.297 72.9489 277.785 73.2979 278.263 73.151C283.125 71.6028 287.693 70.0717 288.677 66.8887C289.174 65.1522 288.318 63.1019 286.064 61.2732C285.529 60.8392 284.562 60.9557 284.473 61.4551C284.269 62.5424 283.864 63.6696 283.22 64.7859C283.197 64.7874 283.768 62.4379 282.781 59.528C282.724 59.3625 282.565 59.2114 282.334 59.1162C280.06 58.1761 277.233 57.5559 274.11 57.5134C273.447 57.5035 272.882 57.8805 272.923 58.2823C273.035 59.4271 272.937 60.6769 272.565 61.987C272.554 61.9902 272.488 60.1977 271.341 58.069C271.201 57.8124 270.783 57.6748 270.319 57.7357C270.311 57.7368 270.303 57.7378 270.294 57.739C269.587 57.8321 269.106 58.3262 269.322 58.7105C270.285 60.4138 270.919 62.8611 270.409 65.61C270.351 65.6446 270.06 61.7281 266.361 58.952C266.121 58.7772 265.695 58.7505 265.286 58.8852C265.131 58.9364 264.977 58.9887 264.823 59.0423C264.261 59.2387 263.931 59.681 264.079 60.0071C264.687 61.3531 265.029 62.9851 264.899 64.8198C264.882 64.8288 264.384 62.7035 262.423 60.6501C262.181 60.3985 261.619 60.3926 261.135 60.6492C256.478 63.0779 253.328 66.6121 251.878 69.6588C250.4 72.7408 250.623 75.3354 252.045 76.7042C254.312 78.828 258.602 78.1075 263.182 77.1479C263.555 77.0662 263.816 76.7217 263.771 76.3669C263.361 72.9463 261.93 70.3647 261.893 70.3771V70.3771Z" fill="#417934"/>
<path d="M279.556 66.0305C279.505 66.0293 274.355 65.9663 267.173 67.8761C262.959 68.9965 258.879 70.5671 255.047 72.5442C253.313 73.4391 251.628 74.4183 249.998 75.4794C249.864 75.1501 249.74 74.818 249.625 74.4826C251.23 73.447 252.889 72.4882 254.593 71.6101C258.497 69.5977 262.652 68.0007 266.943 66.8629C274.258 64.9224 279.36 64.988 279.573 64.9922L279.565 65.5115L279.556 66.0305Z" fill="#156000"/>
<path d="M253.059 62.2981C255.526 62.6823 257.366 64.0465 258.706 65.2027C258.949 65.414 259.32 65.3845 259.555 65.141C260.711 63.9424 261.89 62.6815 263.111 61.3595C263.969 60.4318 264.797 59.5273 265.596 58.6393C265.737 58.4835 265.794 58.2723 265.753 58.074C265.023 54.2285 262.896 51.3138 262.838 51.3406C264.843 52.6334 265.953 54.5157 266.705 56.0759C266.902 56.4821 267.478 56.5152 267.791 56.1505C270.949 52.3962 273.877 48.8065 273.043 45.7135C272.556 44.0465 270.807 42.8192 268.036 42.4895C267.378 42.4111 266.652 43.0022 266.836 43.454C267.228 44.4426 267.477 45.567 267.527 46.8049C267.509 46.8182 266.767 44.615 264.471 42.7556C264.34 42.6506 264.133 42.6092 263.897 42.6502C261.565 43.0534 258.948 44.0003 256.387 45.569C255.843 45.9012 255.578 46.4975 255.818 46.803C256.495 47.6767 257.058 48.7427 257.428 49.9989C257.42 50.0074 256.447 48.5839 254.421 47.442C254.176 47.3049 253.766 47.4077 253.42 47.6955C253.413 47.7006 253.407 47.7058 253.401 47.7109C252.874 48.1499 252.737 48.7981 253.11 48.9997C254.766 49.8905 256.539 51.5544 257.534 54.0513C257.505 54.1092 255.258 51.0746 250.826 50.7161C250.541 50.6974 250.181 50.8944 249.918 51.2135C249.818 51.3347 249.719 51.4565 249.622 51.579C249.266 52.0273 249.225 52.5561 249.512 52.7451C250.697 53.5276 251.813 54.6791 252.649 56.2373C252.64 56.2529 251.144 54.7811 248.496 54.1179C248.17 54.0378 247.71 54.3214 247.448 54.7788C244.909 59.1435 244.162 63.6341 244.547 66.8551C244.927 70.1196 246.441 72.1147 248.3 72.4974C251.233 73.0603 254.351 70.2726 257.582 67.1413C257.843 66.8833 257.879 66.4693 257.66 66.2041C255.571 63.6335 253.082 62.2694 253.059 62.2981V62.2981Z" fill="#417934"/>
<path d="M265.186 49.6998C265.144 49.7249 260.925 52.3171 256.066 57.5567C253.216 60.6306 250.705 64.0017 248.604 67.5764C247.654 69.1939 246.786 70.8551 246.006 72.5546C245.728 72.3556 245.456 72.1492 245.191 71.9356C245.964 70.2696 246.821 68.6386 247.756 67.0498C249.897 63.4097 252.455 59.9783 255.36 56.8507C260.31 51.5184 264.492 48.9528 264.668 48.8465L264.927 49.2732L265.186 49.6998Z" fill="#156000"/>
<path d="M259.453 65.524C262.115 66.8293 263.721 69.0246 264.833 70.8079C265.034 71.1332 265.465 71.2306 265.817 71.0372C267.55 70.0854 269.331 69.0714 271.182 68.0029C272.481 67.2532 273.739 66.5196 274.958 65.7945C275.172 65.6673 275.312 65.448 275.335 65.2086C275.863 60.5913 274.479 56.5368 274.403 56.5468C276.221 58.7191 276.817 61.2448 277.119 63.2788C277.199 63.8087 277.84 64.0493 278.324 63.746C283.228 60.6023 287.813 57.5641 287.958 53.7632C287.993 51.7014 286.442 49.6934 283.416 48.3429C282.699 48.0223 281.667 48.4365 281.716 49.0136C281.812 50.2728 281.699 51.6355 281.319 53.0566C281.293 53.0652 281.229 50.3057 279.281 47.3883C279.169 47.2228 278.949 47.103 278.667 47.0662C275.881 46.7016 272.58 46.853 269.123 47.729C268.389 47.9139 267.878 48.4965 268.042 48.9274C268.503 50.157 268.765 51.5639 268.742 53.1186C268.73 53.1256 268.128 51.1683 266.234 49.1598C266.004 48.918 265.503 48.8898 265.009 49.0941C265 49.0978 264.991 49.1014 264.983 49.1051C264.23 49.4169 263.846 50.1037 264.198 50.4636C265.762 52.0576 267.185 54.5688 267.434 57.751C267.381 57.8063 265.902 53.5735 261.004 51.605C260.687 51.4832 260.209 51.5797 259.799 51.8489C259.643 51.9511 259.488 52.0544 259.334 52.159C258.772 52.5417 258.539 53.1268 258.799 53.4426C259.867 54.7474 260.726 56.4462 261.125 58.5078C261.109 58.5224 259.932 56.3262 257.163 54.641C256.821 54.4352 256.2 54.5947 255.742 55.0209C251.324 59.0749 248.894 63.9032 248.196 67.6912C247.477 71.5266 248.489 74.322 250.462 75.4112C253.59 77.0833 258.107 75.0213 262.875 72.6097C263.262 72.4093 263.448 71.9524 263.293 71.5745C261.831 67.9235 259.489 65.4996 259.453 65.524V65.524Z" fill="#5CAE4A"/>
<path d="M277.643 55.512C277.586 55.5257 271.889 56.9779 264.533 61.2062C260.217 63.6867 256.182 66.6242 252.54 69.9369C250.893 71.436 249.324 73.0138 247.84 74.6656C247.595 74.342 247.36 74.0124 247.134 73.6765C248.598 72.0603 250.144 70.5128 251.764 69.0408C255.475 65.6681 259.585 62.6792 263.98 60.1566C271.473 55.8555 277.119 54.4203 277.355 54.3618L277.499 54.937L277.643 55.512Z" fill="#156000"/>
<path d="M23.8785 71.6345C21.7366 72.6847 20.4447 74.451 19.55 75.8858C19.388 76.1475 19.0412 76.2259 18.7577 76.0703C17.3639 75.3045 15.9305 74.4887 14.4415 73.629C13.3963 73.0258 12.3843 72.4355 11.403 71.8521C11.2308 71.7498 11.1188 71.5733 11.1001 71.3808C10.675 67.6658 11.7889 64.4036 11.8496 64.4116C10.3873 66.1594 9.90784 68.1915 9.6647 69.828C9.60052 70.2544 9.08422 70.448 8.69515 70.204C4.74964 67.6746 1.06057 65.2301 0.944078 62.172C0.91573 60.5131 2.16308 58.8975 4.59792 57.8109C5.1754 57.5529 6.00564 57.8862 5.96589 58.3505C5.88834 59.3637 5.97997 60.4601 6.28554 61.6035C6.30599 61.6104 6.35793 59.3901 7.92509 57.0428C8.01555 56.9097 8.19215 56.8133 8.4195 56.7837C10.661 56.4903 13.3167 56.6121 16.0978 57.317C16.6884 57.4657 17.0997 57.9345 16.9675 58.2812C16.5968 59.2705 16.3858 60.4024 16.4048 61.6533C16.4141 61.6589 16.8986 60.0842 18.4224 58.4681C18.6072 58.2736 19.0108 58.2509 19.4082 58.4153C19.4152 58.4183 19.4224 58.4212 19.4294 58.4242C20.0351 58.675 20.3438 59.2276 20.0608 59.5172C18.8021 60.7997 17.6571 62.8202 17.4566 65.3805C17.4998 65.425 18.6893 62.0193 22.6307 60.4355C22.8856 60.3376 23.27 60.4151 23.6003 60.6318C23.7258 60.714 23.8502 60.7971 23.9738 60.8812C24.4261 61.1891 24.6135 61.6599 24.4045 61.914C23.5454 62.9639 22.8543 64.3306 22.5333 65.9894C22.5456 66.0011 23.4933 64.2341 25.7207 62.8783C25.9957 62.7127 26.4956 62.841 26.8645 63.1839C30.4185 66.4457 32.3736 70.3304 32.9353 73.3782C33.5142 76.4641 32.6997 78.7132 31.1122 79.5895C28.5958 80.9349 24.9611 79.2758 21.1254 77.3355C20.8138 77.1743 20.6641 76.8066 20.7888 76.5026C21.9655 73.5651 23.8492 71.6149 23.8785 71.6345V71.6345Z" fill="#417934"/>
<path d="M9.24207 63.5789C9.28734 63.5899 13.8713 64.7583 19.7899 68.1603C23.2623 70.1561 26.5086 72.5195 29.4389 75.1849C30.7644 76.3911 32.0269 77.6605 33.221 78.9895C33.418 78.7292 33.6071 78.464 33.7888 78.1937C32.6108 76.8933 31.367 75.6482 30.0634 74.4639C27.0779 71.7503 23.7709 69.3455 20.2345 67.3159C14.2059 63.8552 9.66354 62.7005 9.47304 62.6534L9.35718 63.1163L9.24207 63.5789Z" fill="#156000"/>
<path d="M33.6374 66.5666C31.3569 66.3209 29.4 67.0938 27.936 67.801C27.67 67.9307 27.3478 67.8163 27.1972 67.5444C26.4571 66.2063 25.7106 64.8072 24.9412 63.3439C24.4012 62.317 23.8814 61.3176 23.383 60.3396C23.2956 60.168 23.2951 59.9671 23.3787 59.8009C24.9401 56.5624 27.5203 54.482 27.5655 54.5196C25.4794 55.19 24.0465 56.596 23.0088 57.8017C22.7378 58.1154 22.2186 58.0077 22.0276 57.6097C20.1182 53.5279 18.3738 49.6469 19.8489 47.1008C20.6774 45.7376 22.5208 45.0644 25.0581 45.4308C25.66 45.5175 26.1639 46.2147 25.8933 46.5717C25.3101 47.3556 24.8218 48.2941 24.4833 49.3805C24.4964 49.3966 25.6783 47.6182 28.1574 46.5143C28.2993 46.4525 28.4923 46.4648 28.6924 46.5574C30.6653 47.4695 32.7619 48.9317 34.6612 50.9324C35.0649 51.3564 35.1587 51.9486 34.8732 52.1627C34.064 52.7767 33.3114 53.5887 32.6848 54.6155C32.6895 54.6248 33.8917 53.5932 35.9601 53.0615C36.2102 52.9982 36.55 53.1869 36.7887 53.5246C36.7928 53.5306 36.7972 53.5367 36.8014 53.5427C37.1651 54.0576 37.1324 54.6653 36.7537 54.7554C35.072 55.152 33.1039 56.2069 31.6267 58.1855C31.639 58.2439 34.3542 56.0857 38.3716 56.8212C38.6291 56.8724 38.9018 57.1328 39.0591 57.4784C39.119 57.6098 39.1775 57.7412 39.2348 57.873C39.4444 58.3555 39.3551 58.8345 39.0547 58.9338C37.8174 59.3463 36.5539 60.1027 35.4415 61.2865C35.4455 61.3024 37.123 60.3523 39.6299 60.3933C39.9385 60.3999 40.279 60.7608 40.403 61.229C41.618 65.7051 41.2134 69.8671 40.1056 72.6332C38.9922 75.4393 37.1754 76.8497 35.435 76.7473C32.6985 76.5494 30.5951 73.3348 28.4727 69.7884C28.3021 69.4973 28.3691 69.1215 28.6266 68.9384C31.0911 67.1542 33.6237 66.5356 33.6374 66.5666V66.5666Z" fill="#417934"/>
<path d="M25.8724 52.5053C25.9036 52.5375 29.0307 55.8404 32.0962 61.6444C33.8948 65.0495 35.3209 68.6373 36.335 72.3084C36.7936 73.9695 37.1683 75.6496 37.4569 77.3431C37.7508 77.2326 38.0406 77.114 38.3271 76.9876C38.0368 75.3256 37.6647 73.6749 37.2129 72.0429C36.1786 68.3042 34.7244 64.6515 32.8911 61.1861C29.7662 55.2779 26.666 52.0075 26.5353 51.8714L26.2035 52.1882L25.8724 52.5053Z" fill="#156000"/>
<path d="M27.1959 67.9086C24.5236 68.4338 22.5771 69.9999 21.1665 71.3177C20.9106 71.5585 20.5049 71.5424 20.2383 71.2871C18.9275 70.0308 17.588 68.7075 16.1999 67.3195C15.2256 66.3455 14.2841 65.3956 13.3743 64.4624C13.2147 64.2986 13.1433 64.0709 13.1796 63.853C13.8085 59.6307 16.0008 56.3625 16.0653 56.3893C13.9363 57.8846 12.8072 59.9838 12.0555 61.7166C11.8587 62.1678 11.2322 62.2287 10.8752 61.8447C7.27174 57.8896 3.92593 54.1039 4.70108 50.6972C5.15999 48.8595 7.01286 47.4465 10.0189 46.9677C10.732 46.8538 11.549 47.4667 11.368 47.9669C10.9831 49.0613 10.7602 50.2974 10.7593 51.6486C10.7798 51.6623 11.4932 49.2292 13.9149 47.1038C14.054 46.9837 14.2772 46.9296 14.5367 46.9641C17.0952 47.3029 19.9877 48.2219 22.8464 49.821C23.4536 50.1595 23.7686 50.7979 23.5205 51.1412C22.8193 52.1227 22.2522 53.3086 21.9036 54.6936C21.9122 54.7025 22.9118 53.1091 25.0696 51.7773C25.3308 51.6174 25.7826 51.7116 26.1723 52.0103C26.1791 52.0157 26.1862 52.021 26.1931 52.0264C26.7869 52.482 26.9641 53.1825 26.5664 53.4182C24.7994 54.4606 22.9397 56.3503 21.9621 59.1145C21.9966 59.1763 24.3146 55.7722 29.129 55.1903C29.439 55.1576 29.84 55.3567 30.1402 55.6932C30.2543 55.821 30.3669 55.9494 30.4784 56.0787C30.8862 56.5518 30.9536 57.1264 30.6481 57.3448C29.3906 58.2487 28.2246 59.5517 27.3805 61.286C27.3906 61.3026 28.9578 59.634 31.8147 58.797C32.1669 58.6957 32.6802 58.9849 32.9857 59.472C35.941 64.1191 36.9492 68.9807 36.668 72.5075C36.3946 76.0816 34.8318 78.3211 32.8223 78.8184C29.6497 79.5585 26.1318 76.6549 22.4754 73.3819C22.1794 73.1121 22.1229 72.6624 22.3503 72.364C24.5159 69.4723 27.1694 67.8783 27.1959 67.9086V67.9086Z" fill="#5CAE4A"/>
<path d="M13.4365 54.7012C13.4832 54.7268 18.1929 57.3696 23.7144 62.87C26.9538 66.0969 29.8353 69.6624 32.2791 73.4674C33.3844 75.1892 34.4015 76.9621 35.3256 78.7805C35.6198 78.5516 35.9066 78.315 36.1869 78.0707C35.2721 76.2886 34.2684 74.5481 33.1808 72.8569C30.6904 68.9823 27.7542 65.3533 24.4541 62.0702C18.8287 56.4726 14.1608 53.8571 13.9646 53.7489L13.7001 54.2251L13.4365 54.7012Z" fill="#156000"/>
<ellipse opacity="0.08" cx="147.183" cy="43.491" rx="43.5551" ry="43.491" fill="#E5AD4E"/>
<ellipse opacity="0.24" cx="147.184" cy="43.4911" rx="34.5879" ry="34.537" fill="#E5AD4E"/>
<ellipse cx="147.183" cy="43.4907" rx="27.5422" ry="27.5017" fill="#E5AD4E"/>
<ellipse cx="131.168" cy="33.2585" rx="2.56207" ry="2.5583" fill="#F2BE66"/>
<ellipse cx="136.934" cy="28.1416" rx="1.28103" ry="1.27915" fill="#F2BE66"/>
<ellipse cx="163.837" cy="31.3391" rx="3.20258" ry="3.19787" fill="#F2BE66"/>
<ellipse cx="146.541" cy="23.6632" rx="1.92155" ry="1.91872" fill="#F2BE66"/>
<path fill-rule="evenodd" clip-rule="evenodd" d="M88 6.39677C88 4.27741 89.7181 2.55933 91.8375 2.55933H107.221C109.341 2.55933 111.059 4.27741 111.059 6.39677C111.059 8.51613 109.341 10.2342 107.221 10.2342H91.8375C89.7181 10.2342 88 8.51613 88 6.39677ZM95.0462 19.1879C95.0462 17.0685 96.7643 15.3504 98.8837 15.3504H98.9609C100.342 15.314 101.45 14.183 101.45 12.793C101.45 11.3801 100.305 10.2347 98.8922 10.2347H106.572C105.159 10.2347 104.014 11.3801 104.014 12.793C104.014 14.183 105.122 15.314 106.503 15.3504H121.313C123.432 15.3504 125.15 17.0685 125.15 19.1879C125.15 21.3072 123.432 23.0253 121.313 23.0253H98.8837C96.7643 23.0253 95.0462 21.3072 95.0462 19.1879Z" fill="url(#paint0_linear_101_11035)"/>
<path fill-rule="evenodd" clip-rule="evenodd" d="M194.837 16.5995C194.837 14.9935 193.536 13.6917 191.93 13.6917H180.272C178.667 13.6917 177.365 14.9935 177.365 16.5995C177.365 18.2055 178.667 19.5074 180.272 19.5074H180.802C181.855 19.527 182.703 20.3873 182.703 21.4456C182.703 22.5127 181.841 23.3784 180.775 23.3841H169.594C167.988 23.3841 166.686 24.686 166.686 26.292C166.686 27.898 167.988 29.1999 169.594 29.1999H186.59C188.196 29.1999 189.498 27.898 189.498 26.292C189.498 24.686 188.196 23.3841 186.59 23.3841H186.574C185.508 23.3784 184.646 22.5127 184.646 21.4456C184.646 20.3873 185.494 19.527 186.548 19.5074H191.93C193.536 19.5074 194.837 18.2055 194.837 16.5995Z" fill="url(#paint1_linear_101_11035)"/>
<path d="M190.171 79.0303C193.591 80.7073 195.654 83.528 197.083 85.8193C197.342 86.2372 197.896 86.3624 198.348 86.1139C200.574 84.891 202.863 83.5881 205.241 82.2152C206.91 81.252 208.526 80.3094 210.093 79.3778C210.368 79.2143 210.547 78.9325 210.577 78.6251C211.256 72.6925 209.477 67.483 209.38 67.4958C211.715 70.2869 212.481 73.5321 212.869 76.1454C212.972 76.8263 213.796 77.1354 214.417 76.7458C220.718 72.7066 226.609 68.8029 226.795 63.9194C226.841 61.2702 224.849 58.6903 220.96 56.9551C220.038 56.5431 218.712 57.0754 218.776 57.8168C218.9 59.4347 218.753 61.1856 218.265 63.0115C218.233 63.0226 218.15 59.477 215.647 55.7285C215.503 55.5159 215.221 55.362 214.858 55.3147C211.278 54.8462 207.037 55.0407 202.596 56.1663C201.653 56.4039 200.996 57.1524 201.207 57.7061C201.799 59.2859 202.136 61.0936 202.106 63.0911C202.091 63.1001 201.317 60.5853 198.884 58.0046C198.589 57.694 197.944 57.6577 197.31 57.9203C197.298 57.925 197.287 57.9297 197.276 57.9344C196.308 58.335 195.815 59.2174 196.267 59.6799C198.277 61.7279 200.106 64.9545 200.426 69.0431C200.357 69.1141 198.458 63.6756 192.163 61.1463C191.756 60.9899 191.143 61.1138 190.615 61.4598C190.415 61.5911 190.216 61.7238 190.019 61.8582C189.296 62.3498 188.997 63.1017 189.331 63.5074C190.703 65.1839 191.806 67.3666 192.319 70.0154C192.299 70.0342 190.786 67.2124 187.229 65.0472C186.79 64.7828 185.992 64.9877 185.402 65.5353C179.727 70.7441 176.605 76.9478 175.708 81.8147C174.783 86.7427 176.084 90.3344 178.619 91.7338C182.638 93.8823 188.442 91.2328 194.567 88.1344C195.065 87.8769 195.304 87.2898 195.105 86.8042C193.226 82.1133 190.218 78.9989 190.171 79.0303V79.0303Z" fill="#417934"/>
<path d="M213.545 66.1674C213.472 66.185 206.152 68.0508 196.7 73.4835C191.155 76.6707 185.971 80.4449 181.292 84.7012C179.175 86.6274 177.159 88.6546 175.252 90.7769C174.937 90.3612 174.636 89.9377 174.345 89.5061C176.227 87.4294 178.213 85.4411 180.295 83.5499C185.062 79.2165 190.343 75.3762 195.991 72.135C205.618 66.6086 212.872 64.7646 213.176 64.6895L213.361 65.4286L213.545 66.1674Z" fill="#156000"/>
<path d="M174.589 70.9381C178.231 70.5458 181.356 71.78 183.693 72.9094C184.118 73.1165 184.633 72.9339 184.873 72.4996C186.055 70.3627 187.247 68.1285 188.476 65.7917C189.338 64.1519 190.168 62.556 190.964 60.9942C191.104 60.7201 191.105 60.3992 190.971 60.1339C188.478 54.9622 184.357 51.64 184.285 51.7001C187.616 52.7706 189.905 55.0159 191.562 56.9413C191.995 57.4422 192.824 57.2703 193.129 56.6346C196.178 50.1164 198.964 43.9187 196.608 39.8528C195.285 37.6759 192.341 36.6008 188.289 37.186C187.328 37.3244 186.523 38.4377 186.956 39.0079C187.887 40.2598 188.667 41.7584 189.207 43.4933C189.186 43.5191 187.299 40.6791 183.34 38.9162C183.113 38.8175 182.805 38.8371 182.486 38.985C179.335 40.4416 175.987 42.7766 172.954 45.9715C172.309 46.6487 172.159 47.5945 172.615 47.9363C173.908 48.9168 175.109 50.2135 176.11 51.8531C176.103 51.868 174.183 50.2207 170.88 49.3716C170.48 49.2705 169.938 49.5719 169.556 50.1111C169.55 50.1207 169.543 50.1304 169.536 50.14C168.955 50.9623 169.008 51.9327 169.612 52.0767C172.298 52.7099 175.441 54.3945 177.8 57.5543C177.78 57.6474 173.444 54.201 167.029 55.3755C166.617 55.4573 166.182 55.8731 165.931 56.4251C165.835 56.6348 165.742 56.8447 165.65 57.0552C165.315 57.8257 165.458 58.5905 165.938 58.7491C167.914 59.4079 169.931 60.6159 171.708 62.5063C171.701 62.5317 169.023 61.0144 165.019 61.08C164.526 61.0904 163.983 61.6667 163.785 62.4144C161.844 69.5624 162.491 76.2088 164.26 80.626C166.038 85.1071 168.939 87.3595 171.718 87.1959C176.088 86.8798 179.447 81.7463 182.836 76.0831C183.109 75.6183 183.002 75.0182 182.591 74.7257C178.655 71.8765 174.611 70.8887 174.589 70.9381V70.9381Z" fill="#417934"/>
<path d="M186.987 48.4824C186.938 48.5338 181.944 53.8083 177.048 63.0768C174.176 68.5144 171.899 74.244 170.279 80.1064C169.547 82.759 168.949 85.442 168.488 88.1463C168.019 87.9699 167.556 87.7805 167.098 87.5786C167.562 84.9246 168.156 82.2885 168.877 79.6823C170.529 73.712 172.851 67.8789 175.779 62.3449C180.769 52.9101 185.72 47.6874 185.929 47.4702L186.459 47.9761L186.987 48.4824Z" fill="#156000"/>
<path d="M184.872 73.081C189.14 73.9197 192.248 76.4205 194.501 78.5251C194.91 78.9095 195.557 78.8839 195.983 78.4762C198.076 76.4699 200.215 74.3568 202.432 72.1403C203.988 70.5849 205.492 69.0679 206.944 67.5776C207.199 67.316 207.313 66.9525 207.255 66.6046C206.251 59.8619 202.75 54.6428 202.647 54.6855C206.047 57.0734 207.85 60.4257 209.05 63.1929C209.365 63.9134 210.365 64.0107 210.935 63.3974C216.69 57.0815 222.033 51.036 220.795 45.5957C220.062 42.661 217.103 40.4046 212.303 39.64C211.164 39.4582 209.859 40.4369 210.148 41.2357C210.763 42.9833 211.119 44.9573 211.12 47.115C211.088 47.1369 209.948 43.2515 206.081 39.8574C205.859 39.6656 205.502 39.5792 205.088 39.6343C201.002 40.1754 196.383 41.6429 191.818 44.1965C190.849 44.7371 190.345 45.7566 190.742 46.3048C191.861 47.8721 192.767 49.7659 193.324 51.9777C193.31 51.9919 191.714 49.4474 188.268 47.3205C187.851 47.0652 187.129 47.2156 186.507 47.6927C186.496 47.7012 186.485 47.7097 186.474 47.7183C185.525 48.4459 185.243 49.5646 185.878 49.941C188.699 51.6056 191.669 54.6233 193.23 59.0374C193.175 59.1362 189.473 53.7001 181.785 52.7708C181.29 52.7186 180.65 53.0366 180.171 53.5739C179.988 53.778 179.808 53.983 179.63 54.1895C178.979 54.9451 178.872 55.8626 179.359 56.2114C181.368 57.6548 183.23 59.7356 184.578 62.5051C184.561 62.5317 182.059 59.8671 177.497 58.5305C176.934 58.3687 176.114 58.8305 175.626 59.6084C170.907 67.0294 169.297 74.793 169.746 80.425C170.183 86.1325 172.678 89.7089 175.887 90.503C180.954 91.6848 186.572 87.0481 192.411 81.8214C192.883 81.3904 192.973 80.6723 192.61 80.1958C189.152 75.578 184.915 73.0326 184.872 73.081V73.081Z" fill="#5CAE4A"/>
<path d="M206.845 51.9903C206.77 52.0312 199.249 56.2516 190.432 65.0353C185.259 70.1884 180.657 75.8821 176.755 81.9584C174.99 84.708 173.365 87.5392 171.89 90.443C171.42 90.0776 170.962 89.6998 170.514 89.3096C171.975 86.4637 173.578 83.6842 175.315 80.9835C179.292 74.7962 183.981 69.0008 189.251 63.758C198.234 54.8192 205.688 50.6424 206.001 50.4696L206.424 51.23L206.845 51.9903Z" fill="#156000"/>
<path d="M116.883 73.5157C113.036 75.4017 110.716 78.5738 109.11 81.1506C108.819 81.6206 108.196 81.7614 107.687 81.482C105.184 80.1066 102.609 78.6414 99.9352 77.0975C98.0582 76.0142 96.2408 74.9542 94.4784 73.9065C94.1692 73.7227 93.9681 73.4058 93.9345 73.06C93.171 66.3882 95.1715 60.5296 95.2804 60.544C92.6543 63.6829 91.7933 67.3324 91.3566 70.2714C91.2414 71.0371 90.3142 71.3847 89.6154 70.9466C82.5297 66.404 75.9045 62.014 75.6953 56.5219C75.6444 53.5427 77.8845 50.6413 82.2572 48.6899C83.2943 48.2266 84.7853 48.8252 84.714 49.6589C84.5747 51.4785 84.7392 53.4476 85.288 55.501C85.3247 55.5134 85.418 51.526 88.2325 47.3105C88.3949 47.0714 88.7121 46.8983 89.1204 46.8451C93.1459 46.3183 97.9152 46.537 102.91 47.8028C103.97 48.07 104.709 48.9118 104.472 49.5345C103.806 51.3112 103.427 53.344 103.461 55.5905C103.478 55.6006 104.348 52.7725 107.085 49.8702C107.416 49.5209 108.141 49.4801 108.855 49.7753C108.867 49.7807 108.88 49.7859 108.893 49.7913C109.981 50.2418 110.535 51.2341 110.027 51.7542C107.766 54.0574 105.71 57.686 105.35 62.2841C105.428 62.364 107.564 56.2478 114.642 53.4034C115.1 53.2275 115.79 53.3668 116.383 53.7559C116.609 53.9036 116.832 54.0528 117.054 54.2039C117.867 54.7568 118.203 55.6023 117.828 56.0587C116.285 57.9441 115.044 60.3987 114.467 63.3776C114.489 63.3987 116.191 60.2252 120.192 57.7903C120.685 57.4929 121.583 57.7234 122.246 58.3392C128.628 64.197 132.14 71.1737 133.148 76.6471C134.188 82.1891 132.725 86.2284 129.874 87.8021C125.355 90.2183 118.827 87.2387 111.939 83.7541C111.379 83.4646 111.11 82.8043 111.334 82.2583C113.448 76.9828 116.831 73.4804 116.883 73.5157V73.5157Z" fill="#417934"/>
<path d="M90.597 59.0501C90.6784 59.0699 98.9107 61.1682 109.54 67.2778C115.776 70.8622 121.606 75.1066 126.868 79.8933C129.249 82.0595 131.516 84.3393 133.661 86.726C134.015 86.2585 134.354 85.7822 134.68 85.2969C132.565 82.9615 130.331 80.7254 127.99 78.5985C122.628 73.7251 116.689 69.4063 110.338 65.7613C99.5115 59.5464 91.354 57.4726 91.0119 57.3881L90.8038 58.2193L90.597 59.0501Z" fill="#156000"/>
<path d="M134.408 64.4158C130.313 63.9746 126.798 65.3626 124.169 66.6327C123.692 66.8656 123.113 66.6602 122.842 66.1718C121.513 63.7687 120.173 61.2561 118.791 58.6282C117.821 56.784 116.888 54.9892 115.992 53.2328C115.835 52.9246 115.835 52.5637 115.985 52.2653C118.789 46.4493 123.423 42.7131 123.504 42.7807C119.757 43.9846 117.184 46.5097 115.32 48.675C114.834 49.2383 113.901 49.045 113.558 48.3301C110.129 40.9997 106.996 34.0297 109.646 29.4573C111.133 27.009 114.444 25.8001 119.001 26.4581C120.082 26.6138 120.987 27.8658 120.501 28.5071C119.453 29.9149 118.576 31.6002 117.969 33.5514C117.992 33.5803 120.115 30.3864 124.567 28.4039C124.822 28.2929 125.168 28.315 125.528 28.4813C129.071 30.1193 132.836 32.7453 136.247 36.3383C136.972 37.0999 137.14 38.1635 136.628 38.5479C135.174 39.6506 133.823 41.1088 132.698 42.9528C132.706 42.9695 134.865 41.1169 138.58 40.1621C139.029 40.0484 139.639 40.3873 140.068 40.9937C140.075 41.0045 140.083 41.0154 140.091 41.0262C140.744 41.9509 140.685 43.0423 140.005 43.2042C136.985 43.9164 133.45 45.8108 130.797 49.3643C130.819 49.4691 135.696 45.5932 142.911 46.9141C143.373 47.0061 143.863 47.4737 144.145 48.0944C144.253 48.3303 144.358 48.5663 144.461 48.8031C144.837 49.6696 144.677 50.5297 144.137 50.708C141.915 51.4489 139.646 52.8074 137.648 54.9333C137.655 54.9619 140.668 53.2555 145.17 53.3293C145.724 53.341 146.336 53.9892 146.559 54.83C148.741 62.8687 148.014 70.3432 146.025 75.3108C144.025 80.3502 140.762 82.8833 137.637 82.6993C132.722 82.3438 128.945 76.5707 125.133 70.2018C124.827 69.6791 124.947 69.0042 125.409 68.6753C129.835 65.4711 134.384 64.3602 134.408 64.4158V64.4158Z" fill="#417934"/>
<path d="M120.465 39.162C120.521 39.2199 126.137 45.1516 131.642 55.5749C134.872 61.6901 137.433 68.1335 139.255 74.7264C140.078 77.7095 140.751 80.7269 141.27 83.7681C141.797 83.5697 142.318 83.3567 142.832 83.1297C142.311 80.145 141.643 77.1804 140.831 74.2495C138.974 67.5352 136.362 60.9754 133.07 54.7519C127.458 44.1414 121.89 38.268 121.655 38.0237L121.06 38.5926L120.465 39.162Z" fill="#156000"/>
<path d="M122.842 66.8245C118.043 67.7677 114.547 70.5801 112.014 72.9469C111.554 73.3793 110.826 73.3504 110.347 72.8919C107.993 70.6356 105.587 68.2593 103.094 65.7665C101.345 64.0173 99.6538 62.3114 98.0199 60.6353C97.7332 60.3412 97.6051 59.9324 97.6702 59.5411C98.7997 51.9583 102.737 46.0888 102.853 46.1369C99.0292 48.8223 97.0014 52.5924 95.6515 55.7043C95.2981 56.5146 94.1729 56.624 93.5319 55.9344C87.0604 48.8314 81.0516 42.0327 82.4437 35.9145C83.2679 32.6142 86.5954 30.0766 91.9941 29.2167C93.2746 29.0123 94.7419 30.1129 94.4169 31.0113C93.7256 32.9766 93.3253 35.1966 93.3237 37.6231C93.3605 37.6477 94.6416 33.2782 98.9908 29.4612C99.2406 29.2455 99.6415 29.1484 100.107 29.2103C104.702 29.8188 109.897 31.4692 115.031 34.341C116.121 34.9489 116.687 36.0955 116.241 36.712C114.982 38.4745 113.964 40.6043 113.338 43.0917C113.353 43.1077 115.148 40.2461 119.023 37.8543C119.493 37.5671 120.304 37.7363 121.004 38.2728C121.016 38.2824 121.029 38.292 121.041 38.3016C122.108 39.1199 122.426 40.378 121.712 40.8013C118.538 42.6732 115.198 46.067 113.443 51.0311C113.505 51.1421 117.668 45.0288 126.314 43.9836C126.87 43.9249 127.591 44.2825 128.13 44.8868C128.335 45.1163 128.537 45.3469 128.737 45.5791C129.469 46.4289 129.591 47.4607 129.042 47.853C126.783 49.4762 124.689 51.8163 123.174 54.9309C123.192 54.9608 126.006 51.9641 131.137 50.461C131.769 50.279 132.691 50.7984 133.24 51.6732C138.547 60.0188 140.358 68.7498 139.853 75.0836C139.362 81.5023 136.555 85.5243 132.946 86.4173C127.249 87.7464 120.931 82.5319 114.365 76.654C113.833 76.1693 113.732 75.3617 114.14 74.8258C118.029 69.6327 122.795 66.77 122.842 66.8245V66.8245Z" fill="#5CAE4A"/>
<path d="M98.1318 43.1059C98.2156 43.1518 106.674 47.8981 116.59 57.7762C122.407 63.5714 127.582 69.9746 131.971 76.808C133.956 79.9002 135.783 83.0841 137.442 86.3498C137.971 85.9388 138.486 85.5139 138.989 85.0751C137.346 81.8746 135.544 78.7488 133.591 75.7116C129.118 68.7533 123.845 62.2359 117.918 56.3398C107.816 46.2872 99.4326 41.5899 99.0803 41.3956L98.6052 42.2507L98.1318 43.1059Z" fill="#156000"/>
<defs>
<linearGradient id="paint0_linear_101_11035" x1="106.575" y1="2.55933" x2="106.575" y2="23.0253" gradientUnits="userSpaceOnUse">
<stop stop-color="#665278" stop-opacity="0"/>
<stop offset="1" stop-color="#665278"/>
</linearGradient>
<linearGradient id="paint1_linear_101_11035" x1="180.762" y1="13.6917" x2="180.762" y2="29.1999" gradientUnits="userSpaceOnUse">
<stop stop-color="#665278" stop-opacity="0"/>
<stop offset="1" stop-color="#665278"/>
</linearGradient>
</defs>
</svg>
