
<svg width="71" height="71" viewBox="0 0 71 71" fill="none" xmlns="http://www.w3.org/2000/svg">
<g clip-path="url(#clip0_53_14632)">
<path d="M39.9857 59.035C39.9851 59.0352 39.9859 59.035 39.9853 59.0351C32.7305 60.9791 26.5353 62.2742 21.6677 63.1314C18.6673 63.6597 16.0186 61.1168 16.4137 58.0959C17.5096 49.7162 19.3615 41.2323 21.9399 32.7945C23.695 27.051 25.5507 22.109 27.1854 18.174C28.3254 15.4297 31.7483 14.5118 34.1078 16.3183C37.4742 18.8959 41.5301 22.2286 45.8984 26.2989C52.3151 32.2779 58.1338 38.6563 63.2552 45.3202C65.1145 47.7396 64.0863 51.2726 61.2194 52.3173C54.1401 54.8972 47.0214 57.1498 39.9857 59.035V59.035Z" fill="#E5AD4E"/>
<path d="M31.247 15.3863C30.4556 15.8382 29.8018 16.5856 29.4383 17.5861C28.0187 21.4945 26.4183 26.4078 24.9293 32.1269C22.7412 40.5289 21.225 48.9937 20.4051 57.3704C20.1367 60.107 22.168 62.5072 24.6048 62.5904C23.5781 62.7877 22.5988 62.967 21.6677 63.1313C18.6668 63.6596 16.0191 61.117 16.4132 58.0954C17.5094 49.7166 19.3618 41.2324 21.9402 32.7945C23.6955 27.0513 25.5505 22.1086 27.1857 18.1744C27.9072 16.4369 29.5448 15.4312 31.247 15.3863Z" fill="#D38502"/>
<path d="M56.2524 31.7858L56.1677 31.4695C55.8688 30.354 56.4847 29.1974 57.5772 28.8228L60.9378 27.6706C62.1415 27.2579 63.4429 27.9511 63.7723 29.1802L63.9829 29.9661C64.3122 31.1952 63.5316 32.4463 62.2829 32.6907L58.7965 33.3731C57.6631 33.5951 56.5514 32.9015 56.2524 31.7858Z" fill="#E5AD4E"/>
<path d="M50.8841 22.318L50.6526 22.0864C49.8359 21.2697 49.7911 19.9601 50.5499 19.0895L52.8841 16.4115C53.7202 15.4522 55.1938 15.4018 56.0936 16.3015L56.669 16.8769C57.5688 17.7767 57.5182 19.2503 56.559 20.0864L53.881 22.4206C53.0104 23.1796 51.7008 23.1347 50.8841 22.318Z" fill="#E5AD4E"/>
<path d="M41.501 16.8029L41.1846 16.7181C40.069 16.4192 39.3755 15.3075 39.5973 14.1741L40.2798 10.6878C40.5243 9.439 41.7753 8.65848 43.0043 8.98776L43.7904 9.19835C45.0195 9.52774 45.7125 10.8291 45.2998 12.0329L44.1477 15.3934C43.7731 16.4858 42.6166 17.1018 41.501 16.8029Z" fill="#E5AD4E"/>
<path d="M15.6348 42.6693L15.55 42.353C15.2511 41.2375 14.1395 40.5438 13.006 40.7657L9.51952 41.4482C8.27082 41.6926 7.49026 42.9436 7.81959 44.1727L8.03019 44.9587C8.35953 46.1878 9.66102 46.8809 10.8646 46.4682L14.2252 45.316C15.3177 44.9415 15.9337 43.785 15.6348 42.6693Z" fill="#E5AD4E"/>
<path d="M15.5494 31.7858L15.6341 31.4694C15.933 30.3538 15.317 29.1973 14.2246 28.8227L10.8641 27.6706C9.66033 27.2579 8.35896 27.951 8.02956 29.1801L7.81898 29.9661C7.48958 31.1952 8.27022 32.4462 9.51896 32.6906L13.0053 33.3731C14.1388 33.5951 15.2505 32.9014 15.5494 31.7858Z" fill="#E5AD4E"/>
<path d="M20.9184 22.318L21.15 22.0865C21.9668 21.2698 22.0115 19.9602 21.2527 19.0896L18.9185 16.4116C18.0824 15.4523 16.6087 15.4019 15.709 16.3016L15.1335 16.877C14.2338 17.7768 14.2843 19.2503 15.2435 20.0865L17.9216 22.4207C18.7922 23.1795 20.1017 23.1347 20.9184 22.318Z" fill="#E5AD4E"/>
<path d="M32.0379 27.505C32.8322 27.2042 33.6486 26.9854 34.4869 26.8488C35.5476 26.6759 36.5694 27.3266 36.8855 28.3537C37.9191 31.7135 38.8283 35.1066 39.613 38.5331C39.853 39.5806 39.2933 40.6552 38.2883 41.0358C37.494 41.3366 36.6776 41.5553 35.8393 41.692C34.7786 41.8648 33.7568 41.2141 33.4407 40.187C32.4071 36.8272 31.4979 33.4341 30.7132 30.0076C30.4733 28.96 31.0329 27.8855 32.0379 27.505Z" fill="white"/>
<path d="M36.8966 45.4C37.6635 45.1547 38.4404 44.9465 39.2273 44.7755C40.3116 44.5399 41.4024 45.1713 41.7376 46.2291C42.0644 47.2604 42.3441 48.3042 42.5767 49.3608C42.8154 50.4445 42.1864 51.5367 41.1295 51.8749C40.3626 52.1202 39.5857 52.3284 38.7988 52.4994C37.7145 52.735 36.6237 52.1036 36.2885 51.0458C35.9617 50.0145 35.682 48.9706 35.4494 47.914C35.2107 46.8304 35.8397 45.7382 36.8966 45.4Z" fill="white"/>
</g>
<defs>
<clipPath id="clip0_53_14632">
<rect width="57.9267" height="57.9267" fill="white" transform="translate(0 14.9922) rotate(-15)"/>
</clipPath>
</defs>
</svg>
