<svg width="47" height="47" viewBox="0 0 47 47" fill="none" xmlns="http://www.w3.org/2000/svg">
<g clip-path="url(#clip0_484_54531)">
<path d="M26.1192 38.5632C26.1188 38.5633 26.1193 38.5632 26.119 38.5633C21.3799 39.8331 17.3331 40.6791 14.1535 41.2391C12.1935 41.5842 10.4633 39.9231 10.7214 37.9498C11.4373 32.476 12.647 26.9341 14.3313 21.4223C15.4777 17.6705 16.69 14.4423 17.7578 11.8719C18.5024 10.0792 20.7384 9.47963 22.2797 10.6597C24.4786 12.3434 27.1281 14.5204 29.9815 17.1793C34.173 21.0849 37.974 25.2514 41.3194 29.6044C42.534 31.1848 41.8623 33.4926 39.9896 34.1751C35.3652 35.8603 30.7151 37.3318 26.1192 38.5632Z" fill="#E07373"/>
<path d="M20.4109 10.0508C19.8939 10.346 19.4668 10.8342 19.2294 11.4878C18.3021 14.0408 17.2567 17.2503 16.284 20.9862C14.8547 26.4745 13.8643 32.004 13.3287 37.4758C13.1534 39.2634 14.4803 40.8313 16.0721 40.8857C15.4014 41.0145 14.7617 41.1317 14.1535 41.239C12.1932 41.5841 10.4636 39.9232 10.7211 37.9494C11.4372 32.4762 12.6472 26.9341 14.3315 21.4223C15.478 17.6707 16.6898 14.442 17.7579 11.8721C18.2293 10.7371 19.299 10.0802 20.4109 10.0508Z" fill="#CE5555"/>
<path d="M36.7452 20.7633L36.6899 20.5567C36.4946 19.828 36.8969 19.0725 37.6106 18.8278L39.8059 18.0752C40.5921 17.8056 41.4422 18.2584 41.6574 19.0613L41.7949 19.5747C42.0101 20.3775 41.5002 21.1947 40.6845 21.3544L38.4071 21.8002C37.6667 21.9452 36.9405 21.4921 36.7452 20.7633Z" fill="#E07373"/>
<path d="M33.2392 14.5789L33.088 14.4276C32.5545 13.8941 32.5252 13.0387 33.0209 12.47L34.5457 10.7206C35.0919 10.094 36.0544 10.061 36.6422 10.6488L37.0181 11.0246C37.6058 11.6124 37.5728 12.575 36.9462 13.1212L35.1969 14.6459C34.6282 15.1417 33.7727 15.1124 33.2392 14.5789Z" fill="#E07373"/>
<path d="M27.1091 10.9762L26.9025 10.9208C26.1737 10.7256 25.7207 9.99939 25.8656 9.25903L26.3114 6.98165C26.4711 6.16594 27.2883 5.65608 28.0911 5.87118L28.6046 6.00873C29.4075 6.2239 29.8602 7.07399 29.5906 7.8603L28.838 10.0555C28.5933 10.7691 27.8379 11.1714 27.1091 10.9762Z" fill="#E07373"/>
<path d="M10.2128 27.8727L10.1575 27.6661C9.96221 26.9374 9.23606 26.4843 8.49562 26.6292L6.2182 27.075C5.40251 27.2346 4.89263 28.0518 5.10776 28.8547L5.24533 29.3681C5.46046 30.171 6.31063 30.6238 7.09685 30.3542L9.29206 29.6016C10.0057 29.3569 10.4081 28.6014 10.2128 27.8727Z" fill="#E07373"/>
<path d="M10.1578 20.7633L10.2132 20.5567C10.4084 19.8279 10.006 19.0724 9.29244 18.8278L7.09727 18.0752C6.31096 17.8056 5.46088 18.2583 5.24571 19.0612L5.10815 19.5747C4.89298 20.3775 5.40291 21.1947 6.21862 21.3544L8.496 21.8002C9.23638 21.9452 9.96257 21.4921 10.1578 20.7633Z" fill="#E07373"/>
<path d="M13.665 14.5787L13.8162 14.4275C14.3497 13.894 14.379 13.0386 13.8833 12.4699L12.3585 10.7205C11.8124 10.0939 10.8497 10.061 10.262 10.6487L9.88612 11.0245C9.29839 11.6123 9.33136 12.5749 9.95797 13.1211L11.7073 14.6458C12.276 15.1415 13.1315 15.1122 13.665 14.5787Z" fill="#E07373"/>
<path d="M20.9284 17.9671C21.4473 17.7706 21.9806 17.6277 22.5282 17.5384C23.2211 17.4255 23.8885 17.8506 24.095 18.5215C24.7702 20.7162 25.3641 22.9327 25.8767 25.1709C26.0334 25.8552 25.6679 26.5571 25.0114 26.8057C24.4925 27.0022 23.9592 27.1451 23.4116 27.2344C22.7187 27.3472 22.0513 26.9222 21.8448 26.2513C21.1696 24.0566 20.5757 21.8401 20.0631 19.6018C19.9064 18.9175 20.2719 18.2157 20.9284 17.9671Z" fill="white"/>
<path d="M24.1018 29.6566C24.6028 29.4964 25.1103 29.3604 25.6242 29.2487C26.3326 29.0948 27.0451 29.5072 27.2641 30.1982C27.4775 30.8719 27.6603 31.5537 27.8122 32.2439C27.9681 32.9518 27.5573 33.6653 26.8669 33.8862C26.3659 34.0464 25.8584 34.1824 25.3444 34.2941C24.6361 34.448 23.9235 34.0356 23.7046 33.3446C23.4911 32.6709 23.3084 31.9891 23.1564 31.2989C23.0006 30.591 23.4114 29.8775 24.1018 29.6566Z" fill="white"/>
</g>
<defs>
<clipPath id="clip0_484_54531">
<rect width="37.8391" height="37.8391" fill="white" transform="translate(0 9.79346) rotate(-15)"/>
</clipPath>
</defs>
</svg>
